<svg xmlns="http://www.w3.org/2000/svg" width="580" height="250" viewBox="0 0 580 250" role="img" aria-labelledby="t"><title id="t">Crowdsourcing: Digitalization tasks from government agencies, with a chance to pilot your product.</title><defs><clipPath id="f"><rect width="580" height="250" rx="22"/></clipPath></defs><g clip-path="url(#f)"><rect width="580" height="250" fill="#0B3640"/><path d="M544.6 151.4L511.4 184.6L464.6 184.6L431.4 151.4L431.4 104.6L464.6 71.4L511.4 71.4L544.6 104.6Z" fill="#8BC53F" fill-opacity=".14"/><path d="M568.0 128.0L488.0 208.0L408.0 128.0L488.0 48.0Z" fill="none" stroke="#2DB3AE" stroke-width="3" stroke-linejoin="round"/><path d="M544.6 184.6L431.4 184.6L431.4 71.4L544.6 71.4Z" fill="none" stroke="#2DB3AE" stroke-width="3" stroke-linejoin="round"/><path d="M515.7 139.5L501.2 141.2L499.5 155.7L488.0 146.6L476.5 155.7L474.8 141.2L460.3 139.5L469.4 128.0L460.3 116.5L474.8 114.8L476.5 100.3L488.0 109.4L499.5 100.3L501.2 114.8L515.7 116.5L506.6 128.0Z" fill="#8BC53F"/><path fill="#F3F6EE"  d="M52.3 78.4Q49.6 78.4 47.3 77.4Q45.0 76.4 43.3 74.7Q41.6 72.9 40.6 70.5Q39.7 68.2 39.7 65.3Q39.7 62.5 40.6 60.1Q41.6 57.7 43.3 56.0Q45.0 54.2 47.3 53.2Q49.6 52.3 52.3 52.3Q55.1 52.3 57.2 53.2Q59.4 54.1 60.9 55.6Q62.4 57.1 63.0 58.9L58.9 60.9Q58.2 59.0 56.5 57.7Q54.8 56.5 52.3 56.5Q50.0 56.5 48.1 57.6Q46.3 58.7 45.3 60.7Q44.3 62.7 44.3 65.3Q44.3 68.0 45.3 70.0Q46.3 72.0 48.1 73.1Q50.0 74.2 52.3 74.2Q54.8 74.2 56.5 73.0Q58.2 71.7 58.9 69.8L63.0 71.8Q62.4 73.6 60.9 75.1Q59.4 76.6 57.2 77.5Q55.1 78.4 52.3 78.4ZM66.0 78.0L66.0 59.5L70.2 59.5L70.2 63.6L69.8 63.0Q70.5 60.9 71.8 60.1Q73.2 59.3 75.1 59.3L76.2 59.3L76.2 63.3L74.7 63.3Q72.8 63.3 71.6 64.4Q70.4 65.6 70.4 67.7L70.4 78.0L66.0 78.0ZM87.3 78.4Q84.6 78.4 82.4 77.2Q80.2 75.9 78.8 73.7Q77.5 71.5 77.5 68.8Q77.5 66.0 78.8 63.8Q80.2 61.6 82.4 60.4Q84.6 59.1 87.3 59.1Q90.0 59.1 92.3 60.4Q94.5 61.6 95.8 63.8Q97.1 65.9 97.1 68.8Q97.1 71.5 95.8 73.7Q94.4 75.9 92.2 77.2Q90.0 78.4 87.3 78.4ZM87.3 74.3Q88.8 74.3 90.0 73.6Q91.1 72.9 91.8 71.6Q92.4 70.4 92.4 68.8Q92.4 67.1 91.8 65.9Q91.1 64.6 90.0 63.9Q88.8 63.2 87.3 63.2Q85.8 63.2 84.7 63.9Q83.5 64.6 82.8 65.9Q82.2 67.1 82.2 68.8Q82.2 70.4 82.8 71.6Q83.5 72.9 84.7 73.6Q85.8 74.3 87.3 74.3ZM104.4 78.0L98.0 59.5L102.7 59.5L107.3 73.6L105.7 73.5L110.7 59.5L114.6 59.5L119.6 73.5L117.9 73.6L122.6 59.5L127.3 59.5L120.9 78.0L117.0 78.0L111.9 63.3L113.4 63.3L108.3 78.0L104.4 78.0ZM137.6 78.4Q134.9 78.4 132.8 77.1Q130.7 75.8 129.4 73.7Q128.2 71.5 128.2 68.8Q128.2 66.0 129.5 63.9Q130.7 61.7 132.8 60.4Q134.9 59.1 137.6 59.1Q139.7 59.1 141.3 59.9Q143.0 60.8 143.9 62.2L143.2 63.2L143.2 52.3L147.7 52.3L147.7 78.0L143.5 78.0L143.5 74.4L143.9 75.3Q143.0 76.8 141.3 77.6Q139.6 78.4 137.6 78.4ZM138.1 74.3Q139.6 74.3 140.7 73.6Q141.9 72.9 142.6 71.6Q143.2 70.4 143.2 68.8Q143.2 67.1 142.6 65.9Q141.9 64.6 140.7 63.9Q139.6 63.2 138.1 63.2Q136.6 63.2 135.4 63.9Q134.2 64.6 133.5 65.9Q132.9 67.1 132.9 68.8Q132.9 70.4 133.5 71.6Q134.2 72.9 135.4 73.6Q136.6 74.3 138.1 74.3ZM158.4 78.4Q155.5 78.4 153.3 77.0Q151.1 75.6 150.3 73.2L153.6 71.6Q154.4 73.1 155.6 74.0Q156.9 74.9 158.4 74.9Q159.7 74.9 160.4 74.4Q161.1 73.8 161.1 72.9Q161.1 72.4 160.8 72.0Q160.5 71.7 160.0 71.4Q159.6 71.2 159.0 71.0L155.9 70.1Q153.6 69.5 152.4 68.1Q151.2 66.7 151.2 64.8Q151.2 63.1 152.1 61.8Q152.9 60.5 154.5 59.8Q156.0 59.1 158.0 59.1Q160.6 59.1 162.6 60.4Q164.7 61.6 165.5 63.9L162.1 65.5Q161.6 64.2 160.5 63.5Q159.4 62.8 158.0 62.8Q156.9 62.8 156.2 63.3Q155.6 63.8 155.6 64.6Q155.6 65.1 155.8 65.5Q156.1 65.8 156.6 66.1Q157.1 66.3 157.7 66.5L160.7 67.4Q163.0 68.1 164.2 69.4Q165.4 70.8 165.4 72.8Q165.4 74.4 164.6 75.7Q163.7 77.0 162.1 77.7Q160.6 78.4 158.4 78.4ZM177.5 78.4Q174.8 78.4 172.6 77.2Q170.4 75.9 169.0 73.7Q167.7 71.5 167.7 68.8Q167.7 66.0 169.0 63.8Q170.4 61.6 172.6 60.4Q174.8 59.1 177.5 59.1Q180.2 59.1 182.5 60.4Q184.7 61.6 186.0 63.8Q187.3 65.9 187.3 68.8Q187.3 71.5 186.0 73.7Q184.6 75.9 182.4 77.2Q180.2 78.4 177.5 78.4ZM177.5 74.3Q179.0 74.3 180.2 73.6Q181.3 72.9 182.0 71.6Q182.6 70.4 182.6 68.8Q182.6 67.1 182.0 65.9Q181.3 64.6 180.2 63.9Q179.0 63.2 177.5 63.2Q176.0 63.2 174.9 63.9Q173.7 64.6 173.0 65.9Q172.4 67.1 172.4 68.8Q172.4 70.4 173.0 71.6Q173.7 72.9 174.9 73.6Q176.0 74.3 177.5 74.3ZM196.8 78.4Q194.7 78.4 193.1 77.5Q191.5 76.5 190.7 74.8Q189.9 73.1 189.9 70.8L189.9 59.5L194.3 59.5L194.3 70.5Q194.3 71.6 194.8 72.5Q195.3 73.4 196.1 73.8Q197.0 74.3 198.1 74.3Q199.2 74.3 200.0 73.8Q200.9 73.4 201.3 72.5Q201.8 71.6 201.8 70.4L201.8 59.5L206.3 59.5L206.3 78.0L202.1 78.0L202.1 74.4L202.4 75.0Q201.8 76.7 200.3 77.6Q198.8 78.4 196.8 78.4ZM210.0 78.0L210.0 59.5L214.2 59.5L214.2 63.6L213.9 63.0Q214.5 60.9 215.9 60.1Q217.2 59.3 219.2 59.3L220.3 59.3L220.3 63.3L218.7 63.3Q216.8 63.3 215.6 64.4Q214.5 65.6 214.5 67.7L214.5 78.0L210.0 78.0ZM231.2 78.4Q228.5 78.4 226.3 77.1Q224.1 75.9 222.8 73.7Q221.5 71.5 221.5 68.7Q221.5 66.0 222.8 63.8Q224.1 61.6 226.3 60.4Q228.5 59.1 231.2 59.1Q233.2 59.1 234.9 59.8Q236.6 60.5 237.8 61.7Q239.1 62.9 239.6 64.6L235.7 66.3Q235.2 64.9 234.0 64.0Q232.8 63.2 231.2 63.2Q229.8 63.2 228.6 63.9Q227.5 64.6 226.8 65.9Q226.2 67.1 226.2 68.8Q226.2 70.4 226.8 71.6Q227.5 72.9 228.6 73.6Q229.8 74.3 231.2 74.3Q232.8 74.3 234.0 73.5Q235.2 72.6 235.7 71.2L239.6 73.0Q239.1 74.5 237.9 75.8Q236.6 77.0 234.9 77.7Q233.2 78.4 231.2 78.4ZM242.6 78.0L242.6 59.5L247.0 59.5L247.0 78.0L242.6 78.0ZM242.6 57.4L242.6 52.7L247.0 52.7L247.0 57.4L242.6 57.4ZM250.7 78.0L250.7 59.5L254.9 59.5L254.9 63.2L254.6 62.5Q255.2 60.8 256.7 60.0Q258.2 59.1 260.1 59.1Q262.2 59.1 263.8 60.0Q265.3 60.9 266.2 62.5Q267.1 64.0 267.1 66.1L267.1 78.0L262.7 78.0L262.7 67.2Q262.7 65.9 262.2 65.0Q261.7 64.2 260.9 63.7Q260.0 63.2 258.9 63.2Q257.8 63.2 257.0 63.7Q256.1 64.2 255.7 65.1Q255.2 65.9 255.2 67.2L255.2 78.0L250.7 78.0ZM279.5 85.5Q277.4 85.5 275.6 84.8Q273.8 84.1 272.6 82.9Q271.3 81.7 270.7 80.1L274.9 78.5Q275.3 79.8 276.5 80.6Q277.7 81.4 279.5 81.4Q280.8 81.4 281.8 80.9Q282.9 80.4 283.5 79.4Q284.0 78.4 284.0 77.1L284.0 72.9L284.9 73.9Q283.9 75.6 282.3 76.4Q280.8 77.2 278.7 77.2Q276.1 77.2 274.1 76.1Q272.0 74.9 270.9 72.8Q269.7 70.7 269.7 68.1Q269.7 65.5 270.9 63.5Q272.0 61.5 274.1 60.3Q276.1 59.1 278.6 59.1Q280.7 59.1 282.3 60.0Q283.8 60.8 284.9 62.5L284.3 63.6L284.3 59.5L288.5 59.5L288.5 77.1Q288.5 79.5 287.3 81.4Q286.2 83.3 284.1 84.4Q282.1 85.5 279.5 85.5ZM279.3 73.1Q280.7 73.1 281.8 72.5Q282.8 71.9 283.4 70.8Q284.0 69.6 284.0 68.2Q284.0 66.7 283.4 65.6Q282.8 64.5 281.7 63.8Q280.7 63.2 279.3 63.2Q277.9 63.2 276.7 63.8Q275.6 64.5 275.0 65.6Q274.4 66.7 274.4 68.2Q274.4 69.6 275.0 70.7Q275.6 71.8 276.7 72.5Q277.8 73.1 279.3 73.1Z"/><path fill="#A3C4C1"  d="M39.5 118.0L39.5 104.2L44.0 104.2Q46.1 104.2 47.7 105.1Q49.2 105.9 50.1 107.5Q51.0 109.0 51.0 111.1Q51.0 113.2 50.1 114.7Q49.2 116.3 47.7 117.1Q46.1 118.0 44.0 118.0L39.5 118.0ZM41.4 116.3L44.1 116.3Q45.6 116.3 46.7 115.7Q47.8 115.0 48.5 113.9Q49.1 112.7 49.1 111.1Q49.1 109.5 48.4 108.3Q47.8 107.2 46.7 106.5Q45.6 105.9 44.1 105.9L41.4 105.9L41.4 116.3ZM53.0 118.0L53.0 108.0L54.8 108.0L54.8 118.0L53.0 118.0ZM53.0 106.4L53.0 104.2L54.8 104.2L54.8 106.4L53.0 106.4ZM62.2 122.1Q61.1 122.1 60.2 121.7Q59.3 121.4 58.7 120.8Q58.0 120.2 57.7 119.5L59.3 118.7Q59.6 119.4 60.3 119.9Q61.0 120.4 62.2 120.4Q63.0 120.4 63.7 120.1Q64.4 119.8 64.8 119.1Q65.2 118.5 65.2 117.6L65.2 115.3L65.5 115.7Q65.0 116.7 64.0 117.2Q63.1 117.8 61.9 117.8Q60.5 117.8 59.4 117.1Q58.3 116.4 57.6 115.3Q57.0 114.2 57.0 112.8Q57.0 111.4 57.6 110.3Q58.3 109.1 59.4 108.5Q60.5 107.8 61.9 107.8Q63.1 107.8 64.0 108.3Q64.9 108.9 65.5 109.8L65.3 110.3L65.3 108.0L67.0 108.0L67.0 117.6Q67.0 118.9 66.3 119.9Q65.7 120.9 64.6 121.5Q63.6 122.1 62.2 122.1ZM62.0 116.1Q62.9 116.1 63.7 115.7Q64.4 115.2 64.8 114.5Q65.2 113.7 65.2 112.8Q65.2 111.9 64.8 111.1Q64.4 110.4 63.7 109.9Q62.9 109.5 62.0 109.5Q61.1 109.5 60.4 109.9Q59.7 110.4 59.3 111.1Q58.8 111.9 58.8 112.8Q58.8 113.7 59.3 114.5Q59.7 115.2 60.4 115.7Q61.1 116.1 62.0 116.1ZM69.6 118.0L69.6 108.0L71.3 108.0L71.3 118.0L69.6 118.0ZM69.6 106.4L69.6 104.2L71.3 104.2L71.3 106.4L69.6 106.4ZM78.1 118.1Q76.6 118.1 75.8 117.3Q75.0 116.5 75.0 114.9L75.0 109.7L73.2 109.7L73.2 108.0L73.6 108.0Q74.2 108.0 74.6 107.6Q75.0 107.2 75.0 106.6L75.0 105.7L76.7 105.7L76.7 108.0L79.0 108.0L79.0 109.7L76.7 109.7L76.7 114.9Q76.7 115.4 76.9 115.8Q77.1 116.1 77.4 116.3Q77.8 116.5 78.4 116.5Q78.5 116.5 78.7 116.5Q78.9 116.5 79.1 116.5L79.1 118.0Q78.8 118.1 78.6 118.1Q78.3 118.1 78.1 118.1ZM84.1 118.2Q83.1 118.2 82.4 117.9Q81.6 117.5 81.2 116.9Q80.8 116.2 80.8 115.4Q80.8 114.6 81.1 114.0Q81.5 113.3 82.2 112.9Q82.9 112.4 84.1 112.2L87.7 111.6L87.7 113.1L84.4 113.6Q83.5 113.8 83.0 114.3Q82.6 114.7 82.6 115.3Q82.6 115.9 83.1 116.4Q83.6 116.8 84.3 116.8Q85.3 116.8 86.0 116.4Q86.7 116.0 87.1 115.3Q87.4 114.6 87.4 113.8L87.4 111.2Q87.4 110.4 86.8 109.9Q86.2 109.4 85.3 109.4Q84.4 109.4 83.8 109.8Q83.1 110.3 82.8 111.0L81.3 110.2Q81.6 109.5 82.2 109.0Q82.8 108.4 83.6 108.1Q84.4 107.8 85.3 107.8Q86.4 107.8 87.3 108.3Q88.2 108.7 88.7 109.5Q89.2 110.2 89.2 111.2L89.2 118.0L87.5 118.0L87.5 116.1L87.8 116.2Q87.5 116.8 86.9 117.3Q86.4 117.7 85.7 118.0Q85.0 118.2 84.1 118.2ZM91.8 118.0L91.8 104.0L93.6 104.0L93.6 118.0L91.8 118.0ZM96.2 118.0L96.2 108.0L97.9 108.0L97.9 118.0L96.2 118.0ZM96.2 106.4L96.2 104.2L97.9 104.2L97.9 106.4L96.2 106.4ZM99.6 118.0L99.6 116.5L105.6 109.0L105.9 109.7L99.9 109.7L99.9 108.0L107.4 108.0L107.4 109.5L101.5 117.0L101.2 116.4L107.4 116.4L107.4 118.0L99.6 118.0ZM112.0 118.2Q111.1 118.2 110.3 117.9Q109.5 117.5 109.1 116.9Q108.7 116.2 108.7 115.4Q108.7 114.6 109.0 114.0Q109.4 113.3 110.1 112.9Q110.8 112.4 112.0 112.2L115.7 111.6L115.7 113.1L112.3 113.6Q111.4 113.8 111.0 114.3Q110.5 114.7 110.5 115.3Q110.5 115.9 111.0 116.4Q111.5 116.8 112.2 116.8Q113.2 116.8 113.9 116.4Q114.6 116.0 115.0 115.3Q115.4 114.6 115.4 113.8L115.4 111.2Q115.4 110.4 114.8 109.9Q114.2 109.4 113.2 109.4Q112.3 109.4 111.7 109.8Q111.0 110.3 110.7 111.0L109.2 110.2Q109.5 109.5 110.1 109.0Q110.7 108.4 111.5 108.1Q112.3 107.8 113.2 107.8Q114.4 107.8 115.2 108.3Q116.1 108.7 116.6 109.5Q117.1 110.2 117.1 111.2L117.1 118.0L115.4 118.0L115.4 116.1L115.7 116.2Q115.4 116.8 114.9 117.3Q114.3 117.7 113.6 118.0Q112.9 118.2 112.0 118.2ZM123.6 118.1Q122.2 118.1 121.4 117.3Q120.6 116.5 120.6 114.9L120.6 109.7L118.8 109.7L118.8 108.0L119.1 108.0Q119.8 108.0 120.2 107.6Q120.6 107.2 120.6 106.6L120.6 105.7L122.3 105.7L122.3 108.0L124.5 108.0L124.5 109.7L122.3 109.7L122.3 114.9Q122.3 115.4 122.5 115.8Q122.6 116.1 123.0 116.3Q123.4 116.5 124.0 116.5Q124.1 116.5 124.3 116.5Q124.5 116.5 124.6 116.5L124.6 118.0Q124.4 118.1 124.1 118.1Q123.8 118.1 123.6 118.1ZM126.9 118.0L126.9 108.0L128.6 108.0L128.6 118.0L126.9 118.0ZM126.9 106.4L126.9 104.2L128.6 104.2L128.6 106.4L126.9 106.4ZM136.0 118.2Q134.6 118.2 133.4 117.5Q132.2 116.9 131.5 115.7Q130.9 114.5 130.9 113.0Q130.9 111.5 131.5 110.3Q132.2 109.2 133.4 108.5Q134.5 107.8 136.0 107.8Q137.5 107.8 138.6 108.5Q139.8 109.2 140.5 110.3Q141.1 111.5 141.1 113.0Q141.1 114.5 140.4 115.7Q139.7 116.9 138.6 117.6Q137.4 118.2 136.0 118.2ZM136.0 116.6Q136.9 116.6 137.7 116.1Q138.4 115.6 138.9 114.8Q139.3 114.0 139.3 113.0Q139.3 112.0 138.9 111.2Q138.4 110.4 137.7 109.9Q136.9 109.5 136.0 109.5Q135.1 109.5 134.3 109.9Q133.6 110.4 133.1 111.2Q132.7 112.0 132.7 113.0Q132.7 114.0 133.1 114.8Q133.6 115.6 134.3 116.1Q135.1 116.6 136.0 116.6ZM143.4 118.0L143.4 108.0L145.1 108.0L145.1 110.0L144.8 109.8Q145.1 108.9 146.0 108.3Q146.8 107.8 147.9 107.8Q149.0 107.8 149.8 108.3Q150.7 108.8 151.2 109.6Q151.6 110.5 151.6 111.5L151.6 118.0L149.9 118.0L149.9 112.1Q149.9 111.3 149.6 110.7Q149.3 110.1 148.8 109.8Q148.2 109.5 147.5 109.5Q146.8 109.5 146.3 109.8Q145.7 110.1 145.4 110.7Q145.1 111.3 145.1 112.1L145.1 118.0L143.4 118.0ZM161.4 118.1Q159.9 118.1 159.1 117.3Q158.3 116.5 158.3 114.9L158.3 109.7L156.5 109.7L156.5 108.0L156.9 108.0Q157.6 108.0 157.9 107.6Q158.3 107.2 158.3 106.6L158.3 105.7L160.0 105.7L160.0 108.0L162.3 108.0L162.3 109.7L160.0 109.7L160.0 114.9Q160.0 115.4 160.2 115.8Q160.4 116.1 160.7 116.3Q161.1 116.5 161.7 116.5Q161.8 116.5 162.0 116.5Q162.2 116.5 162.4 116.5L162.4 118.0Q162.2 118.1 161.9 118.1Q161.6 118.1 161.4 118.1ZM167.4 118.2Q166.4 118.2 165.7 117.9Q164.9 117.5 164.5 116.9Q164.1 116.2 164.1 115.4Q164.1 114.6 164.4 114.0Q164.8 113.3 165.5 112.9Q166.2 112.4 167.4 112.2L171.0 111.6L171.0 113.1L167.7 113.6Q166.8 113.8 166.3 114.3Q165.9 114.7 165.9 115.3Q165.9 115.9 166.4 116.4Q166.9 116.8 167.6 116.8Q168.6 116.8 169.3 116.4Q170.0 116.0 170.4 115.3Q170.7 114.6 170.7 113.8L170.7 111.2Q170.7 110.4 170.1 109.9Q169.5 109.4 168.6 109.4Q167.7 109.4 167.1 109.8Q166.4 110.3 166.1 111.0L164.6 110.2Q164.9 109.5 165.5 109.0Q166.1 108.4 166.9 108.1Q167.7 107.8 168.6 107.8Q169.7 107.8 170.6 108.3Q171.5 108.7 172.0 109.5Q172.5 110.2 172.5 111.2L172.5 118.0L170.8 118.0L170.8 116.1L171.1 116.2Q170.8 116.8 170.3 117.3Q169.7 117.7 169.0 118.0Q168.3 118.2 167.4 118.2ZM178.7 118.2Q177.2 118.2 176.1 117.5Q175.0 116.7 174.5 115.5L175.9 114.8Q176.3 115.7 177.1 116.2Q177.8 116.7 178.7 116.7Q179.5 116.7 180.1 116.4Q180.6 116.0 180.6 115.3Q180.6 114.9 180.3 114.6Q180.1 114.4 179.7 114.2Q179.4 114.0 179.1 114.0L177.6 113.5Q176.3 113.2 175.6 112.4Q175.0 111.7 175.0 110.8Q175.0 109.9 175.5 109.2Q175.9 108.5 176.7 108.2Q177.5 107.8 178.5 107.8Q179.8 107.8 180.8 108.5Q181.9 109.1 182.3 110.3L180.9 111.0Q180.6 110.2 179.9 109.8Q179.2 109.3 178.4 109.3Q177.7 109.3 177.2 109.7Q176.8 110.1 176.8 110.6Q176.8 111.1 177.0 111.3Q177.2 111.6 177.5 111.7Q177.8 111.9 178.1 112.0L179.8 112.5Q181.0 112.8 181.7 113.5Q182.3 114.3 182.3 115.3Q182.3 116.2 181.9 116.8Q181.4 117.5 180.6 117.9Q179.8 118.2 178.7 118.2ZM184.6 118.0L184.6 104.0L186.3 104.0L186.3 113.6L185.6 113.4L190.9 108.0L193.1 108.0L189.3 112.0L193.4 118.0L191.3 118.0L187.6 112.6L188.7 112.6L185.8 115.6L186.3 114.3L186.3 118.0L184.6 118.0ZM198.5 118.2Q197.0 118.2 195.9 117.5Q194.8 116.7 194.3 115.5L195.7 114.8Q196.1 115.7 196.8 116.2Q197.6 116.7 198.5 116.7Q199.3 116.7 199.8 116.4Q200.4 116.0 200.4 115.3Q200.4 114.9 200.1 114.6Q199.9 114.4 199.5 114.2Q199.2 114.0 198.9 114.0L197.4 113.5Q196.0 113.2 195.4 112.4Q194.8 111.7 194.8 110.8Q194.8 109.9 195.2 109.2Q195.7 108.5 196.5 108.2Q197.3 107.8 198.2 107.8Q199.6 107.8 200.6 108.5Q201.7 109.1 202.1 110.3L200.7 111.0Q200.4 110.2 199.7 109.8Q199.0 109.3 198.2 109.3Q197.4 109.3 197.0 109.7Q196.5 110.1 196.5 110.6Q196.5 111.1 196.8 111.3Q197.0 111.6 197.3 111.7Q197.6 111.9 197.9 112.0L199.5 112.5Q200.8 112.8 201.4 113.5Q202.1 114.3 202.1 115.3Q202.1 116.2 201.6 116.8Q201.2 117.5 200.4 117.9Q199.6 118.2 198.5 118.2ZM208.6 118.0L208.6 109.7L206.7 109.7L206.7 108.0L208.6 108.0L208.6 107.3Q208.6 106.3 209.1 105.5Q209.6 104.8 210.4 104.4Q211.1 104.0 212.1 104.0Q212.3 104.0 212.6 104.0Q212.8 104.1 213.0 104.1L213.0 105.6Q212.8 105.6 212.6 105.6Q212.4 105.6 212.3 105.6Q211.5 105.6 210.9 106.0Q210.4 106.4 210.4 107.3L210.4 108.0L212.7 108.0L212.7 109.7L210.4 109.7L210.4 118.0L208.6 118.0ZM214.8 118.0L214.8 108.0L216.5 108.0L216.5 109.9L216.3 109.6Q216.6 108.8 217.4 108.3Q218.1 107.9 219.1 107.9L219.7 107.9L219.7 109.6L218.9 109.6Q217.8 109.6 217.2 110.2Q216.5 110.9 216.5 112.1L216.5 118.0L214.8 118.0ZM226.0 118.2Q224.6 118.2 223.4 117.5Q222.2 116.9 221.5 115.7Q220.8 114.5 220.8 113.0Q220.8 111.5 221.5 110.3Q222.2 109.2 223.4 108.5Q224.5 107.8 226.0 107.8Q227.4 107.8 228.6 108.5Q229.8 109.2 230.4 110.3Q231.1 111.5 231.1 113.0Q231.1 114.5 230.4 115.7Q229.7 116.9 228.6 117.6Q227.4 118.2 226.0 118.2ZM226.0 116.6Q226.9 116.6 227.7 116.1Q228.4 115.6 228.9 114.8Q229.3 114.0 229.3 113.0Q229.3 112.0 228.9 111.2Q228.4 110.4 227.7 109.9Q226.9 109.5 226.0 109.5Q225.0 109.5 224.3 109.9Q223.6 110.4 223.1 111.2Q222.7 112.0 222.7 113.0Q222.7 114.0 223.1 114.8Q223.6 115.6 224.3 116.1Q225.0 116.6 226.0 116.6ZM233.4 118.0L233.4 108.0L235.0 108.0L235.0 110.1L234.8 109.8Q235.2 108.8 236.0 108.3Q236.8 107.8 237.8 107.8Q239.0 107.8 239.9 108.5Q240.9 109.1 241.2 110.2L240.7 110.2Q241.1 109.0 242.0 108.4Q243.0 107.8 244.1 107.8Q245.1 107.8 246.0 108.3Q246.8 108.8 247.3 109.6Q247.8 110.5 247.8 111.5L247.8 118.0L246.1 118.0L246.1 112.1Q246.1 111.3 245.8 110.7Q245.5 110.1 245.0 109.8Q244.5 109.5 243.8 109.5Q243.1 109.5 242.6 109.8Q242.1 110.1 241.7 110.7Q241.4 111.3 241.4 112.1L241.4 118.0L239.7 118.0L239.7 112.1Q239.7 111.3 239.4 110.7Q239.1 110.1 238.6 109.8Q238.1 109.5 237.4 109.5Q236.7 109.5 236.2 109.8Q235.7 110.1 235.4 110.7Q235.1 111.3 235.1 112.1L235.1 118.0L233.4 118.0ZM258.2 122.1Q257.2 122.1 256.3 121.7Q255.4 121.4 254.7 120.8Q254.1 120.2 253.7 119.5L255.3 118.7Q255.6 119.4 256.3 119.9Q257.1 120.4 258.2 120.4Q259.0 120.4 259.7 120.1Q260.4 119.8 260.8 119.1Q261.2 118.5 261.2 117.6L261.2 115.3L261.5 115.7Q261.0 116.7 260.1 117.2Q259.1 117.8 257.9 117.8Q256.5 117.8 255.4 117.1Q254.3 116.4 253.7 115.3Q253.0 114.2 253.0 112.8Q253.0 111.4 253.7 110.3Q254.3 109.1 255.4 108.5Q256.5 107.8 257.9 107.8Q259.1 107.8 260.0 108.3Q261.0 108.9 261.5 109.8L261.3 110.3L261.3 108.0L263.0 108.0L263.0 117.6Q263.0 118.9 262.4 119.9Q261.8 120.9 260.7 121.5Q259.6 122.1 258.2 122.1ZM258.1 116.1Q259.0 116.1 259.7 115.7Q260.4 115.2 260.8 114.5Q261.2 113.7 261.2 112.8Q261.2 111.9 260.8 111.1Q260.4 110.4 259.7 109.9Q259.0 109.5 258.1 109.5Q257.2 109.5 256.4 109.9Q255.7 110.4 255.3 111.1Q254.9 111.9 254.9 112.8Q254.9 113.7 255.3 114.5Q255.7 115.2 256.4 115.7Q257.1 116.1 258.1 116.1ZM270.4 118.2Q268.9 118.2 267.8 117.5Q266.6 116.9 265.9 115.7Q265.2 114.5 265.2 113.0Q265.2 111.5 265.9 110.3Q266.6 109.2 267.8 108.5Q268.9 107.8 270.4 107.8Q271.8 107.8 273.0 108.5Q274.1 109.2 274.8 110.3Q275.5 111.5 275.5 113.0Q275.5 114.5 274.8 115.7Q274.1 116.9 272.9 117.6Q271.8 118.2 270.4 118.2ZM270.4 116.6Q271.3 116.6 272.1 116.1Q272.8 115.6 273.2 114.8Q273.7 114.0 273.7 113.0Q273.7 112.0 273.2 111.2Q272.8 110.4 272.1 109.9Q271.3 109.5 270.4 109.5Q269.4 109.5 268.7 109.9Q267.9 110.4 267.5 111.2Q267.1 112.0 267.1 113.0Q267.1 114.0 267.5 114.8Q267.9 115.6 268.7 116.1Q269.4 116.6 270.4 116.6ZM280.3 118.0L276.4 108.0L278.3 108.0L281.5 116.5L280.8 116.5L284.0 108.0L285.9 108.0L282.0 118.0L280.3 118.0ZM291.8 118.2Q290.4 118.2 289.2 117.5Q288.1 116.9 287.5 115.7Q286.8 114.5 286.8 113.0Q286.8 111.5 287.5 110.3Q288.1 109.2 289.2 108.5Q290.3 107.8 291.7 107.8Q292.8 107.8 293.6 108.2Q294.5 108.6 295.1 109.3Q295.7 110.0 296.0 110.8Q296.3 111.7 296.3 112.6Q296.3 112.8 296.3 113.1Q296.3 113.3 296.3 113.5L288.1 113.5L288.1 112.1L295.3 112.1L294.4 112.7Q294.6 111.7 294.3 111.0Q293.9 110.2 293.2 109.8Q292.5 109.3 291.7 109.3Q290.8 109.3 290.1 109.8Q289.4 110.2 289.0 111.1Q288.6 111.9 288.6 113.0Q288.6 114.1 289.0 114.9Q289.4 115.7 290.2 116.2Q290.9 116.6 291.8 116.6Q292.8 116.6 293.5 116.2Q294.2 115.7 294.6 115.0L296.1 115.7Q295.8 116.4 295.2 117.0Q294.5 117.6 293.7 117.9Q292.8 118.2 291.8 118.2ZM298.6 118.0L298.6 108.0L300.3 108.0L300.3 109.9L300.1 109.6Q300.4 108.8 301.2 108.3Q301.9 107.9 302.9 107.9L303.5 107.9L303.5 109.6L302.7 109.6Q301.6 109.6 301.0 110.2Q300.3 110.9 300.3 112.1L300.3 118.0L298.6 118.0ZM305.1 118.0L305.1 108.0L306.7 108.0L306.7 110.0L306.5 109.8Q306.8 108.9 307.7 108.3Q308.5 107.8 309.6 107.8Q310.7 107.8 311.5 108.3Q312.4 108.8 312.8 109.6Q313.3 110.5 313.3 111.5L313.3 118.0L311.6 118.0L311.6 112.1Q311.6 111.3 311.3 110.7Q311.0 110.1 310.5 109.8Q309.9 109.5 309.2 109.5Q308.5 109.5 308.0 109.8Q307.4 110.1 307.1 110.7Q306.8 111.3 306.8 112.1L306.8 118.0L305.1 118.0ZM315.8 118.0L315.8 108.0L317.5 108.0L317.5 110.1L317.2 109.8Q317.6 108.8 318.4 108.3Q319.2 107.8 320.2 107.8Q321.4 107.8 322.4 108.5Q323.3 109.1 323.6 110.2L323.1 110.2Q323.6 109.0 324.5 108.4Q325.4 107.8 326.5 107.8Q327.6 107.8 328.4 108.3Q329.2 108.8 329.7 109.6Q330.2 110.5 330.2 111.5L330.2 118.0L328.5 118.0L328.5 112.1Q328.5 111.3 328.2 110.7Q327.9 110.1 327.4 109.8Q326.9 109.5 326.2 109.5Q325.5 109.5 325.0 109.8Q324.5 110.1 324.2 110.7Q323.9 111.3 323.9 112.1L323.9 118.0L322.1 118.0L322.1 112.1Q322.1 111.3 321.9 110.7Q321.6 110.1 321.0 109.8Q320.5 109.5 319.8 109.5Q319.2 109.5 318.6 109.8Q318.1 110.1 317.8 110.7Q317.5 111.3 317.5 112.1L317.5 118.0L315.8 118.0ZM337.3 118.2Q335.8 118.2 334.7 117.5Q333.6 116.9 332.9 115.7Q332.3 114.5 332.3 113.0Q332.3 111.5 332.9 110.3Q333.6 109.2 334.6 108.5Q335.7 107.8 337.1 107.8Q338.2 107.8 339.1 108.2Q340.0 108.6 340.6 109.3Q341.2 110.0 341.5 110.8Q341.8 111.7 341.8 112.6Q341.8 112.8 341.8 113.1Q341.8 113.3 341.7 113.5L333.5 113.5L333.5 112.1L340.7 112.1L339.9 112.7Q340.1 111.7 339.7 111.0Q339.4 110.2 338.7 109.8Q338.0 109.3 337.1 109.3Q336.2 109.3 335.5 109.8Q334.8 110.2 334.4 111.1Q334.0 111.9 334.1 113.0Q334.0 114.1 334.4 114.9Q334.9 115.7 335.6 116.2Q336.4 116.6 337.3 116.6Q338.3 116.6 339.0 116.2Q339.7 115.7 340.1 115.0L341.5 115.7Q341.2 116.4 340.6 117.0Q340.0 117.6 339.1 117.9Q338.3 118.2 337.3 118.2ZM344.0 118.0L344.0 108.0L345.7 108.0L345.7 110.0L345.5 109.8Q345.8 108.9 346.6 108.3Q347.5 107.8 348.6 107.8Q349.6 107.8 350.5 108.3Q351.3 108.8 351.8 109.6Q352.3 110.5 352.3 111.5L352.3 118.0L350.6 118.0L350.6 112.1Q350.6 111.3 350.3 110.7Q350.0 110.1 349.4 109.8Q348.9 109.5 348.2 109.5Q347.5 109.5 346.9 109.8Q346.4 110.1 346.1 110.7Q345.8 111.3 345.8 112.1L345.8 118.0L344.0 118.0ZM358.8 118.1Q357.4 118.1 356.6 117.3Q355.8 116.5 355.8 114.9L355.8 109.7L354.0 109.7L354.0 108.0L354.4 108.0Q355.0 108.0 355.4 107.6Q355.8 107.2 355.8 106.6L355.8 105.7L357.5 105.7L357.5 108.0L359.7 108.0L359.7 109.7L357.5 109.7L357.5 114.9Q357.5 115.4 357.7 115.8Q357.8 116.1 358.2 116.3Q358.6 116.5 359.2 116.5Q359.3 116.5 359.5 116.5Q359.7 116.5 359.9 116.5L359.9 118.0Q359.6 118.1 359.3 118.1Q359.0 118.1 358.8 118.1Z"/><path fill="#A3C4C1"  d="M42.3 144.7Q41.3 144.7 40.5 144.4Q39.8 144.0 39.3 143.4Q38.9 142.7 38.9 141.9Q38.9 141.1 39.3 140.5Q39.6 139.8 40.3 139.4Q41.1 138.9 42.2 138.7L45.9 138.1L45.9 139.6L42.6 140.1Q41.6 140.3 41.2 140.8Q40.7 141.2 40.7 141.8Q40.7 142.4 41.2 142.9Q41.7 143.3 42.5 143.3Q43.4 143.3 44.1 142.9Q44.8 142.5 45.2 141.8Q45.6 141.1 45.6 140.3L45.6 137.7Q45.6 136.9 45.0 136.4Q44.4 135.9 43.4 135.9Q42.5 135.9 41.9 136.3Q41.2 136.8 40.9 137.5L39.4 136.7Q39.7 136.0 40.3 135.5Q40.9 134.9 41.7 134.6Q42.5 134.3 43.4 134.3Q44.6 134.3 45.5 134.8Q46.3 135.2 46.8 136.0Q47.3 136.7 47.3 137.7L47.3 144.5L45.6 144.5L45.6 142.6L45.9 142.7Q45.6 143.3 45.1 143.8Q44.5 144.2 43.8 144.5Q43.1 144.7 42.3 144.7ZM54.7 148.6Q53.7 148.6 52.8 148.2Q51.9 147.9 51.2 147.3Q50.6 146.7 50.3 146.0L51.9 145.2Q52.1 145.9 52.9 146.4Q53.6 146.9 54.7 146.9Q55.5 146.9 56.2 146.6Q56.9 146.3 57.3 145.6Q57.8 145.0 57.8 144.1L57.8 141.8L58.1 142.2Q57.5 143.2 56.6 143.7Q55.6 144.3 54.4 144.3Q53.0 144.3 51.9 143.6Q50.8 142.9 50.2 141.8Q49.6 140.7 49.6 139.3Q49.6 137.9 50.2 136.8Q50.8 135.6 51.9 135.0Q53.0 134.3 54.4 134.3Q55.6 134.3 56.5 134.8Q57.5 135.4 58.1 136.3L57.8 136.8L57.8 134.5L59.5 134.5L59.5 144.1Q59.5 145.4 58.9 146.4Q58.3 147.4 57.2 148.0Q56.1 148.6 54.7 148.6ZM54.6 142.6Q55.5 142.6 56.2 142.2Q56.9 141.7 57.3 141.0Q57.8 140.2 57.8 139.3Q57.8 138.4 57.3 137.6Q56.9 136.9 56.2 136.4Q55.5 136.0 54.6 136.0Q53.7 136.0 52.9 136.4Q52.2 136.9 51.8 137.6Q51.4 138.4 51.4 139.3Q51.4 140.2 51.8 141.0Q52.2 141.7 52.9 142.2Q53.7 142.6 54.6 142.6ZM66.8 144.7Q65.3 144.7 64.2 144.0Q63.0 143.4 62.4 142.2Q61.7 141.0 61.7 139.5Q61.7 138.0 62.4 136.8Q63.0 135.7 64.1 135.0Q65.2 134.3 66.6 134.3Q67.7 134.3 68.6 134.7Q69.4 135.1 70.0 135.8Q70.6 136.5 71.0 137.3Q71.3 138.2 71.3 139.1Q71.3 139.3 71.3 139.6Q71.2 139.8 71.2 140.0L63.0 140.0L63.0 138.6L70.2 138.6L69.4 139.2Q69.5 138.2 69.2 137.5Q68.8 136.7 68.2 136.3Q67.5 135.8 66.6 135.8Q65.7 135.8 65.0 136.3Q64.3 136.7 63.9 137.6Q63.5 138.4 63.6 139.5Q63.5 140.6 63.9 141.4Q64.3 142.2 65.1 142.7Q65.9 143.1 66.8 143.1Q67.8 143.1 68.5 142.7Q69.1 142.2 69.6 141.5L71.0 142.2Q70.7 142.9 70.1 143.5Q69.5 144.1 68.6 144.4Q67.8 144.7 66.8 144.7ZM73.5 144.5L73.5 134.5L75.2 134.5L75.2 136.5L74.9 136.3Q75.3 135.4 76.1 134.8Q76.9 134.3 78.0 134.3Q79.1 134.3 80.0 134.8Q80.8 135.3 81.3 136.1Q81.8 137.0 81.8 138.0L81.8 144.5L80.1 144.5L80.1 138.6Q80.1 137.8 79.8 137.2Q79.5 136.6 78.9 136.3Q78.4 136.0 77.7 136.0Q77.0 136.0 76.4 136.3Q75.9 136.6 75.6 137.2Q75.2 137.8 75.2 138.6L75.2 144.5L73.5 144.5ZM88.9 144.7Q87.4 144.7 86.3 144.0Q85.1 143.3 84.5 142.2Q83.8 141.0 83.8 139.5Q83.8 138.0 84.5 136.8Q85.1 135.7 86.3 135.0Q87.4 134.3 88.9 134.3Q89.9 134.3 90.7 134.7Q91.6 135.0 92.2 135.6Q92.8 136.2 93.2 137.0L91.6 137.7Q91.3 137.0 90.5 136.5Q89.8 136.0 88.9 136.0Q88.0 136.0 87.2 136.4Q86.5 136.9 86.1 137.7Q85.7 138.5 85.7 139.5Q85.7 140.5 86.1 141.3Q86.5 142.1 87.2 142.6Q88.0 143.1 88.9 143.1Q89.8 143.1 90.5 142.6Q91.3 142.1 91.6 141.3L93.2 142.0Q92.8 142.8 92.2 143.4Q91.6 144.0 90.7 144.4Q89.9 144.7 88.9 144.7ZM95.4 144.5L95.4 134.5L97.1 134.5L97.1 144.5L95.4 144.5ZM95.4 132.9L95.4 130.7L97.1 130.7L97.1 132.9L95.4 132.9ZM104.4 144.7Q102.9 144.7 101.8 144.0Q100.7 143.4 100.0 142.2Q99.4 141.0 99.4 139.5Q99.4 138.0 100.0 136.8Q100.7 135.7 101.8 135.0Q102.9 134.3 104.2 134.3Q105.3 134.3 106.2 134.7Q107.1 135.1 107.7 135.8Q108.3 136.5 108.6 137.3Q108.9 138.2 108.9 139.1Q108.9 139.3 108.9 139.6Q108.9 139.8 108.8 140.0L100.6 140.0L100.6 138.6L107.8 138.6L107.0 139.2Q107.2 138.2 106.8 137.5Q106.5 136.7 105.8 136.3Q105.1 135.8 104.2 135.8Q103.4 135.8 102.6 136.3Q101.9 136.7 101.5 137.6Q101.1 138.4 101.2 139.5Q101.1 140.6 101.5 141.4Q102.0 142.2 102.7 142.7Q103.5 143.1 104.4 143.1Q105.4 143.1 106.1 142.7Q106.8 142.2 107.2 141.5L108.6 142.2Q108.3 142.9 107.7 143.5Q107.1 144.1 106.3 144.4Q105.4 144.7 104.4 144.7ZM114.7 144.7Q113.2 144.7 112.1 144.0Q111.0 143.2 110.5 142.0L111.9 141.3Q112.3 142.2 113.1 142.7Q113.8 143.2 114.7 143.2Q115.5 143.2 116.1 142.9Q116.6 142.5 116.6 141.8Q116.6 141.4 116.3 141.1Q116.1 140.9 115.8 140.7Q115.4 140.5 115.1 140.5L113.6 140.0Q112.3 139.7 111.6 138.9Q111.0 138.2 111.0 137.3Q111.0 136.4 111.5 135.7Q111.9 135.0 112.7 134.7Q113.5 134.3 114.5 134.3Q115.8 134.3 116.8 135.0Q117.9 135.6 118.3 136.8L116.9 137.5Q116.6 136.7 115.9 136.3Q115.3 135.8 114.4 135.8Q113.7 135.8 113.2 136.2Q112.8 136.6 112.8 137.1Q112.8 137.6 113.0 137.8Q113.2 138.1 113.5 138.2Q113.9 138.4 114.1 138.5L115.8 138.9Q117.0 139.3 117.7 140.0Q118.3 140.8 118.3 141.8Q118.3 142.7 117.9 143.3Q117.4 144.0 116.6 144.4Q115.8 144.7 114.7 144.7ZM120.9 147.1L120.9 146.2Q121.5 146.1 121.8 145.7Q122.1 145.2 122.1 144.5L121.3 144.5L121.3 142.3L123.1 142.3L123.1 143.8Q123.1 145.2 122.5 146.0Q122.0 146.8 120.9 147.1ZM131.6 144.5L128.2 134.5L130.1 134.5L132.8 142.9L132.2 142.9L134.8 134.5L136.5 134.5L139.1 142.9L138.5 142.9L141.2 134.5L143.1 134.5L139.6 144.5L138.0 144.5L135.4 136.2L135.9 136.2L133.3 144.5L131.6 144.5ZM144.6 144.5L144.6 134.5L146.3 134.5L146.3 144.5L144.6 144.5ZM144.6 132.9L144.6 130.7L146.3 130.7L146.3 132.9L144.6 132.9ZM153.1 144.6Q151.6 144.6 150.8 143.8Q150.0 143.0 150.0 141.4L150.0 136.2L148.2 136.2L148.2 134.5L148.6 134.5Q149.2 134.5 149.6 134.1Q150.0 133.7 150.0 133.1L150.0 132.2L151.7 132.2L151.7 134.5L154.0 134.5L154.0 136.2L151.7 136.2L151.7 141.4Q151.7 141.9 151.9 142.3Q152.1 142.6 152.4 142.8Q152.8 143.0 153.4 143.0Q153.5 143.0 153.7 143.0Q153.9 143.0 154.1 143.0L154.1 144.5Q153.8 144.6 153.6 144.6Q153.3 144.6 153.1 144.6ZM156.3 144.5L156.3 130.5L158.1 130.5L158.1 136.5L157.7 136.3Q158.1 135.4 158.9 134.8Q159.8 134.3 160.8 134.3Q161.9 134.3 162.8 134.8Q163.6 135.3 164.1 136.1Q164.6 137.0 164.6 138.0L164.6 144.5L162.9 144.5L162.9 138.6Q162.9 137.8 162.6 137.2Q162.2 136.6 161.7 136.3Q161.2 136.0 160.5 136.0Q159.8 136.0 159.2 136.3Q158.7 136.6 158.4 137.2Q158.1 137.8 158.1 138.6L158.1 144.5L156.3 144.5ZM173.2 144.7Q172.2 144.7 171.4 144.4Q170.7 144.0 170.3 143.4Q169.8 142.7 169.8 141.9Q169.8 141.1 170.2 140.5Q170.5 139.8 171.3 139.4Q172.0 138.9 173.1 138.7L176.8 138.1L176.8 139.6L173.5 140.1Q172.5 140.3 172.1 140.8Q171.7 141.2 171.7 141.8Q171.7 142.4 172.2 142.9Q172.6 143.3 173.4 143.3Q174.3 143.3 175.0 142.9Q175.7 142.5 176.1 141.8Q176.5 141.1 176.5 140.3L176.5 137.7Q176.5 136.9 175.9 136.4Q175.3 135.9 174.3 135.9Q173.5 135.9 172.8 136.3Q172.2 136.8 171.8 137.5L170.3 136.7Q170.6 136.0 171.2 135.5Q171.9 134.9 172.7 134.6Q173.5 134.3 174.4 134.3Q175.5 134.3 176.4 134.8Q177.3 135.2 177.7 136.0Q178.2 136.7 178.2 137.7L178.2 144.5L176.5 144.5L176.5 142.6L176.9 142.7Q176.6 143.3 176.0 143.8Q175.5 144.2 174.7 144.5Q174.0 144.7 173.2 144.7ZM188.7 144.7Q187.2 144.7 186.1 144.0Q185.0 143.3 184.3 142.2Q183.7 141.0 183.7 139.5Q183.7 138.0 184.3 136.8Q185.0 135.7 186.1 135.0Q187.2 134.3 188.7 134.3Q189.7 134.3 190.6 134.7Q191.4 135.0 192.0 135.6Q192.7 136.2 193.0 137.0L191.5 137.7Q191.1 137.0 190.4 136.5Q189.7 136.0 188.7 136.0Q187.8 136.0 187.1 136.4Q186.3 136.9 185.9 137.7Q185.5 138.5 185.5 139.5Q185.5 140.5 185.9 141.3Q186.3 142.1 187.1 142.6Q187.8 143.1 188.7 143.1Q189.7 143.1 190.4 142.6Q191.1 142.1 191.5 141.3L193.0 142.0Q192.7 142.8 192.0 143.4Q191.4 144.0 190.6 144.4Q189.7 144.7 188.7 144.7ZM195.2 144.5L195.2 130.5L197.0 130.5L197.0 136.5L196.7 136.3Q197.0 135.4 197.8 134.8Q198.7 134.3 199.8 134.3Q200.9 134.3 201.7 134.8Q202.5 135.3 203.0 136.1Q203.5 137.0 203.5 138.0L203.5 144.5L201.8 144.5L201.8 138.6Q201.8 137.8 201.5 137.2Q201.2 136.6 200.6 136.3Q200.1 136.0 199.4 136.0Q198.7 136.0 198.2 136.3Q197.6 136.6 197.3 137.2Q197.0 137.8 197.0 138.6L197.0 144.5L195.2 144.5ZM208.9 144.7Q207.9 144.7 207.2 144.4Q206.4 144.0 206.0 143.4Q205.6 142.7 205.6 141.9Q205.6 141.1 205.9 140.5Q206.3 139.8 207.0 139.4Q207.7 138.9 208.8 138.7L212.5 138.1L212.5 139.6L209.2 140.1Q208.3 140.3 207.8 140.8Q207.4 141.2 207.4 141.8Q207.4 142.4 207.9 142.9Q208.4 143.3 209.1 143.3Q210.0 143.3 210.7 142.9Q211.4 142.5 211.8 141.8Q212.2 141.1 212.2 140.3L212.2 137.7Q212.2 136.9 211.6 136.4Q211.0 135.9 210.1 135.9Q209.2 135.9 208.5 136.3Q207.9 136.8 207.6 137.5L206.1 136.7Q206.3 136.0 207.0 135.5Q207.6 134.9 208.4 134.6Q209.2 134.3 210.1 134.3Q211.2 134.3 212.1 134.8Q213.0 135.2 213.5 136.0Q214.0 136.7 214.0 137.7L214.0 144.5L212.3 144.5L212.3 142.6L212.6 142.7Q212.3 143.3 211.7 143.8Q211.2 144.2 210.5 144.5Q209.8 144.7 208.9 144.7ZM216.6 144.5L216.6 134.5L218.3 134.5L218.3 136.5L218.0 136.3Q218.4 135.4 219.2 134.8Q220.0 134.3 221.1 134.3Q222.2 134.3 223.1 134.8Q223.9 135.3 224.4 136.1Q224.9 137.0 224.9 138.0L224.9 144.5L223.2 144.5L223.2 138.6Q223.2 137.8 222.9 137.2Q222.6 136.6 222.0 136.3Q221.5 136.0 220.8 136.0Q220.1 136.0 219.5 136.3Q219.0 136.6 218.7 137.2Q218.3 137.8 218.3 138.6L218.3 144.5L216.6 144.5ZM232.0 144.7Q230.5 144.7 229.4 144.0Q228.2 143.3 227.6 142.2Q226.9 141.0 226.9 139.5Q226.9 138.0 227.6 136.8Q228.2 135.7 229.4 135.0Q230.5 134.3 232.0 134.3Q233.0 134.3 233.8 134.7Q234.7 135.0 235.3 135.6Q235.9 136.2 236.3 137.0L234.7 137.7Q234.4 137.0 233.6 136.5Q232.9 136.0 232.0 136.0Q231.1 136.0 230.3 136.4Q229.6 136.9 229.2 137.7Q228.8 138.5 228.8 139.5Q228.8 140.5 229.2 141.3Q229.6 142.1 230.3 142.6Q231.1 143.1 232.0 143.1Q232.9 143.1 233.6 142.6Q234.3 142.1 234.7 141.3L236.3 142.0Q235.9 142.8 235.3 143.4Q234.7 144.0 233.8 144.4Q233.0 144.7 232.0 144.7ZM243.1 144.7Q241.7 144.7 240.5 144.0Q239.4 143.4 238.7 142.2Q238.1 141.0 238.1 139.5Q238.1 138.0 238.7 136.8Q239.4 135.7 240.5 135.0Q241.6 134.3 242.9 134.3Q244.0 134.3 244.9 134.7Q245.8 135.1 246.4 135.8Q247.0 136.5 247.3 137.3Q247.6 138.2 247.6 139.1Q247.6 139.3 247.6 139.6Q247.6 139.8 247.5 140.0L239.3 140.0L239.3 138.6L246.5 138.6L245.7 139.2Q245.9 138.2 245.5 137.5Q245.2 136.7 244.5 136.3Q243.8 135.8 242.9 135.8Q242.1 135.8 241.3 136.3Q240.6 136.7 240.2 137.6Q239.8 138.4 239.9 139.5Q239.8 140.6 240.2 141.4Q240.7 142.2 241.4 142.7Q242.2 143.1 243.1 143.1Q244.1 143.1 244.8 142.7Q245.5 142.2 245.9 141.5L247.3 142.2Q247.0 142.9 246.4 143.5Q245.8 144.1 245.0 144.4Q244.1 144.7 243.1 144.7ZM257.1 144.6Q255.7 144.6 254.9 143.8Q254.1 143.0 254.1 141.4L254.1 136.2L252.3 136.2L252.3 134.5L252.6 134.5Q253.3 134.5 253.7 134.1Q254.1 133.7 254.1 133.1L254.1 132.2L255.8 132.2L255.8 134.5L258.0 134.5L258.0 136.2L255.8 136.2L255.8 141.4Q255.8 141.9 256.0 142.3Q256.1 142.6 256.5 142.8Q256.9 143.0 257.5 143.0Q257.6 143.0 257.8 143.0Q258.0 143.0 258.1 143.0L258.1 144.5Q257.9 144.6 257.6 144.6Q257.3 144.6 257.1 144.6ZM264.8 144.7Q263.4 144.7 262.2 144.0Q261.1 143.4 260.4 142.2Q259.7 141.0 259.7 139.5Q259.7 138.0 260.4 136.8Q261.1 135.7 262.2 135.0Q263.4 134.3 264.8 134.3Q266.3 134.3 267.5 135.0Q268.6 135.7 269.3 136.8Q270.0 138.0 270.0 139.5Q270.0 141.0 269.3 142.2Q268.6 143.4 267.4 144.1Q266.3 144.7 264.8 144.7ZM264.8 143.1Q265.8 143.1 266.5 142.6Q267.3 142.1 267.7 141.3Q268.1 140.5 268.1 139.5Q268.1 138.5 267.7 137.7Q267.3 136.9 266.5 136.4Q265.8 136.0 264.8 136.0Q263.9 136.0 263.2 136.4Q262.4 136.9 262.0 137.7Q261.5 138.5 261.5 139.5Q261.5 140.5 262.0 141.3Q262.4 142.1 263.2 142.6Q263.9 143.1 264.8 143.1ZM275.4 148.2L275.4 134.5L277.1 134.5L277.1 136.7L276.9 136.3Q277.4 135.4 278.4 134.8Q279.3 134.3 280.6 134.3Q282.0 134.3 283.1 135.0Q284.2 135.7 284.9 136.9Q285.5 138.0 285.5 139.5Q285.5 141.0 284.9 142.2Q284.2 143.4 283.1 144.0Q282.0 144.7 280.6 144.7Q279.4 144.7 278.4 144.2Q277.4 143.7 276.9 142.7L277.1 142.4L277.1 148.2L275.4 148.2ZM280.4 143.1Q281.4 143.1 282.1 142.6Q282.9 142.1 283.3 141.3Q283.7 140.5 283.7 139.5Q283.7 138.5 283.3 137.7Q282.9 136.9 282.1 136.4Q281.4 136.0 280.4 136.0Q279.5 136.0 278.8 136.4Q278.0 136.9 277.6 137.7Q277.1 138.5 277.1 139.5Q277.1 140.5 277.6 141.3Q278.0 142.1 278.8 142.6Q279.5 143.1 280.4 143.1ZM287.8 144.5L287.8 134.5L289.5 134.5L289.5 144.5L287.8 144.5ZM287.8 132.9L287.8 130.7L289.5 130.7L289.5 132.9L287.8 132.9ZM292.2 144.5L292.2 130.5L293.9 130.5L293.9 144.5L292.2 144.5ZM301.3 144.7Q299.9 144.7 298.7 144.0Q297.5 143.4 296.8 142.2Q296.1 141.0 296.1 139.5Q296.1 138.0 296.8 136.8Q297.5 135.7 298.7 135.0Q299.8 134.3 301.3 134.3Q302.7 134.3 303.9 135.0Q305.1 135.7 305.7 136.8Q306.4 138.0 306.4 139.5Q306.4 141.0 305.7 142.2Q305.0 143.4 303.9 144.1Q302.7 144.7 301.3 144.7ZM301.3 143.1Q302.2 143.1 303.0 142.6Q303.7 142.1 304.1 141.3Q304.6 140.5 304.6 139.5Q304.6 138.5 304.1 137.7Q303.7 136.9 303.0 136.4Q302.2 136.0 301.3 136.0Q300.3 136.0 299.6 136.4Q298.8 136.9 298.4 137.7Q298.0 138.5 298.0 139.5Q298.0 140.5 298.4 141.3Q298.8 142.1 299.6 142.6Q300.3 143.1 301.3 143.1ZM312.5 144.6Q311.1 144.6 310.3 143.8Q309.5 143.0 309.5 141.4L309.5 136.2L307.7 136.2L307.7 134.5L308.0 134.5Q308.7 134.5 309.1 134.1Q309.5 133.7 309.5 133.1L309.5 132.2L311.2 132.2L311.2 134.5L313.4 134.5L313.4 136.2L311.2 136.2L311.2 141.4Q311.2 141.9 311.4 142.3Q311.5 142.6 311.9 142.8Q312.3 143.0 312.9 143.0Q313.0 143.0 313.2 143.0Q313.4 143.0 313.6 143.0L313.6 144.5Q313.3 144.6 313.0 144.6Q312.7 144.6 312.5 144.6ZM319.5 148.6Q319.2 148.6 318.9 148.5Q318.5 148.5 318.2 148.3L318.2 146.8Q318.4 146.8 318.7 146.9Q319.0 146.9 319.3 146.9Q320.2 146.9 320.7 146.5Q321.1 146.2 321.5 145.2L322.2 143.7L322.1 145.2L317.9 134.5L319.7 134.5L323.1 143.0L322.5 143.0L325.8 134.5L327.7 134.5L323.2 145.7Q322.9 146.5 322.4 147.1Q321.9 147.8 321.2 148.2Q320.5 148.6 319.5 148.6ZM333.8 144.7Q332.3 144.7 331.2 144.0Q330.0 143.4 329.3 142.2Q328.6 141.0 328.6 139.5Q328.6 138.0 329.3 136.8Q330.0 135.7 331.2 135.0Q332.3 134.3 333.8 134.3Q335.2 134.3 336.4 135.0Q337.5 135.7 338.2 136.8Q338.9 138.0 338.9 139.5Q338.9 141.0 338.2 142.2Q337.5 143.4 336.3 144.1Q335.2 144.7 333.8 144.7ZM333.8 143.1Q334.7 143.1 335.5 142.6Q336.2 142.1 336.6 141.3Q337.1 140.5 337.1 139.5Q337.1 138.5 336.6 137.7Q336.2 136.9 335.5 136.4Q334.7 136.0 333.8 136.0Q332.8 136.0 332.1 136.4Q331.3 136.9 330.9 137.7Q330.5 138.5 330.5 139.5Q330.5 140.5 330.9 141.3Q331.3 142.1 332.1 142.6Q332.8 143.1 333.8 143.1ZM344.7 144.7Q343.6 144.7 342.7 144.2Q341.9 143.7 341.4 142.8Q340.9 141.9 340.9 140.8L340.9 134.5L342.7 134.5L342.7 140.6Q342.7 141.3 343.0 141.9Q343.3 142.4 343.8 142.7Q344.4 143.1 345.1 143.1Q345.8 143.1 346.3 142.7Q346.9 142.4 347.2 141.8Q347.5 141.2 347.5 140.4L347.5 134.5L349.2 134.5L349.2 144.5L347.5 144.5L347.5 142.6L347.8 142.7Q347.4 143.7 346.6 144.2Q345.8 144.7 344.7 144.7ZM351.9 144.5L351.9 134.5L353.5 134.5L353.5 136.4L353.4 136.1Q353.7 135.2 354.4 134.8Q355.2 134.4 356.2 134.4L356.8 134.4L356.8 136.1L355.9 136.1Q354.9 136.1 354.2 136.7Q353.6 137.4 353.6 138.6L353.6 144.5L351.9 144.5Z"/><path fill="#A3C4C1"  d="M39.3 174.7L39.3 161.0L41.0 161.0L41.0 163.2L40.8 162.8Q41.4 161.9 42.3 161.3Q43.3 160.8 44.5 160.8Q45.9 160.8 47.0 161.5Q48.2 162.2 48.8 163.4Q49.5 164.5 49.5 166.0Q49.5 167.5 48.8 168.7Q48.2 169.9 47.0 170.5Q45.9 171.2 44.5 171.2Q43.3 171.2 42.3 170.7Q41.3 170.2 40.8 169.2L41.1 168.9L41.1 174.7L39.3 174.7ZM44.4 169.6Q45.3 169.6 46.0 169.1Q46.8 168.6 47.2 167.8Q47.6 167.0 47.6 166.0Q47.6 165.0 47.2 164.2Q46.8 163.4 46.0 162.9Q45.3 162.5 44.4 162.5Q43.4 162.5 42.7 162.9Q41.9 163.4 41.5 164.2Q41.1 165.0 41.1 166.0Q41.1 167.0 41.5 167.8Q41.9 168.6 42.7 169.1Q43.4 169.6 44.4 169.6ZM51.7 171.0L51.7 161.0L53.4 161.0L53.4 162.9L53.2 162.6Q53.5 161.8 54.3 161.3Q55.0 160.9 56.0 160.9L56.6 160.9L56.6 162.6L55.8 162.6Q54.7 162.6 54.1 163.2Q53.4 163.9 53.4 165.1L53.4 171.0L51.7 171.0ZM62.9 171.2Q61.5 171.2 60.3 170.5Q59.1 169.9 58.5 168.7Q57.8 167.5 57.8 166.0Q57.8 164.5 58.4 163.3Q59.1 162.2 60.3 161.5Q61.5 160.8 62.9 160.8Q64.4 160.8 65.5 161.5Q66.7 162.2 67.4 163.3Q68.0 164.5 68.0 166.0Q68.0 167.5 67.3 168.7Q66.6 169.9 65.5 170.6Q64.3 171.2 62.9 171.2ZM62.9 169.6Q63.8 169.6 64.6 169.1Q65.3 168.6 65.8 167.8Q66.2 167.0 66.2 166.0Q66.2 165.0 65.8 164.2Q65.3 163.4 64.6 162.9Q63.8 162.5 62.9 162.5Q62.0 162.5 61.2 162.9Q60.5 163.4 60.0 164.2Q59.6 165.0 59.6 166.0Q59.6 167.0 60.0 167.8Q60.5 168.6 61.2 169.1Q62.0 169.6 62.9 169.6ZM74.8 171.2Q73.4 171.2 72.3 170.5Q71.2 169.9 70.5 168.7Q69.9 167.5 69.9 166.0Q69.9 164.5 70.5 163.4Q71.2 162.2 72.3 161.5Q73.4 160.8 74.8 160.8Q76.0 160.8 77.0 161.3Q78.0 161.9 78.5 162.8L78.3 163.2L78.3 157.0L80.0 157.0L80.0 171.0L78.3 171.0L78.3 168.9L78.5 169.2Q78.0 170.2 77.0 170.7Q76.0 171.2 74.8 171.2ZM75.0 169.6Q75.9 169.6 76.6 169.1Q77.4 168.6 77.8 167.8Q78.3 167.0 78.3 166.0Q78.3 165.0 77.8 164.2Q77.4 163.4 76.6 162.9Q75.9 162.5 75.0 162.5Q74.0 162.5 73.3 162.9Q72.5 163.4 72.1 164.2Q71.7 165.0 71.7 166.0Q71.7 167.0 72.1 167.8Q72.5 168.6 73.3 169.1Q74.0 169.6 75.0 169.6ZM86.2 171.2Q85.1 171.2 84.3 170.7Q83.4 170.2 82.9 169.3Q82.4 168.4 82.4 167.3L82.4 161.0L84.2 161.0L84.2 167.1Q84.2 167.8 84.5 168.4Q84.8 168.9 85.3 169.2Q85.9 169.6 86.6 169.6Q87.3 169.6 87.8 169.2Q88.4 168.9 88.7 168.3Q89.0 167.7 89.0 166.9L89.0 161.0L90.7 161.0L90.7 171.0L89.0 171.0L89.0 169.1L89.3 169.2Q89.0 170.2 88.1 170.7Q87.3 171.2 86.2 171.2ZM98.0 171.2Q96.5 171.2 95.4 170.5Q94.3 169.8 93.6 168.7Q93.0 167.5 93.0 166.0Q93.0 164.5 93.6 163.3Q94.3 162.2 95.4 161.5Q96.5 160.8 98.0 160.8Q99.0 160.8 99.8 161.2Q100.7 161.5 101.3 162.1Q102.0 162.7 102.3 163.5L100.7 164.2Q100.4 163.5 99.7 163.0Q99.0 162.5 98.0 162.5Q97.1 162.5 96.4 162.9Q95.6 163.4 95.2 164.2Q94.8 165.0 94.8 166.0Q94.8 167.0 95.2 167.8Q95.6 168.6 96.4 169.1Q97.1 169.6 98.0 169.6Q99.0 169.6 99.7 169.1Q100.4 168.6 100.7 167.8L102.3 168.5Q102.0 169.3 101.3 169.9Q100.7 170.5 99.9 170.9Q99.0 171.2 98.0 171.2ZM108.6 171.1Q107.1 171.1 106.3 170.3Q105.6 169.5 105.6 167.9L105.6 162.7L103.8 162.7L103.8 161.0L104.1 161.0Q104.8 161.0 105.2 160.6Q105.6 160.2 105.6 159.6L105.6 158.7L107.3 158.7L107.3 161.0L109.5 161.0L109.5 162.7L107.3 162.7L107.3 167.9Q107.3 168.4 107.4 168.8Q107.6 169.1 108.0 169.3Q108.3 169.5 108.9 169.5Q109.1 169.5 109.3 169.5Q109.5 169.5 109.6 169.5L109.6 171.0Q109.4 171.1 109.1 171.1Q108.8 171.1 108.6 171.1ZM112.6 171.0L112.6 168.8L114.4 168.8L114.4 171.0L112.6 171.0Z"/><path fill="#8BC53F"  d="M39.3 216.0L39.3 202.6L48.2 202.6L48.2 204.8L41.7 204.8L41.7 208.5L47.4 208.5L47.4 210.6L41.7 210.6L41.7 216.0L39.3 216.0ZM49.6 216.0L49.6 206.2L52.0 206.2L52.0 216.0L49.6 216.0ZM49.6 205.1L49.6 202.6L52.0 202.6L52.0 205.1L49.6 205.1ZM54.2 216.0L54.2 206.2L56.4 206.2L56.4 208.1L56.2 207.8Q56.6 206.9 57.3 206.5Q58.1 206.0 59.2 206.0Q60.3 206.0 61.1 206.5Q61.9 206.9 62.4 207.8Q62.9 208.6 62.9 209.7L62.9 216.0L60.5 216.0L60.5 210.3Q60.5 209.6 60.2 209.1Q60.0 208.7 59.6 208.4Q59.1 208.2 58.5 208.2Q57.9 208.2 57.5 208.4Q57.0 208.7 56.8 209.1Q56.5 209.6 56.5 210.3L56.5 216.0L54.2 216.0ZM69.4 216.2Q68.0 216.2 66.9 215.5Q65.7 214.9 65.1 213.7Q64.5 212.5 64.5 211.1Q64.5 209.7 65.1 208.5Q65.8 207.4 66.9 206.7Q68.0 206.0 69.4 206.0Q70.5 206.0 71.4 206.4Q72.3 206.9 72.8 207.7L72.4 208.2L72.4 202.4L74.8 202.4L74.8 216.0L72.5 216.0L72.5 214.1L72.8 214.6Q72.3 215.4 71.4 215.8Q70.5 216.2 69.4 216.2ZM69.7 214.1Q70.5 214.1 71.1 213.7Q71.7 213.3 72.0 212.6Q72.4 212.0 72.4 211.1Q72.4 210.3 72.0 209.6Q71.7 208.9 71.1 208.5Q70.5 208.2 69.7 208.2Q68.9 208.2 68.2 208.5Q67.6 208.9 67.3 209.6Q66.9 210.2 66.9 211.1Q66.9 212.0 67.3 212.6Q67.6 213.3 68.2 213.7Q68.9 214.1 69.7 214.1ZM83.1 216.2Q82.1 216.2 81.3 215.9Q80.6 215.5 80.2 214.9Q79.8 214.3 79.8 213.4Q79.8 212.6 80.1 212.0Q80.5 211.3 81.2 210.9Q82.0 210.5 83.1 210.3L86.3 209.8L86.3 211.5L83.6 212.0Q82.9 212.2 82.5 212.5Q82.2 212.8 82.2 213.3Q82.2 213.8 82.6 214.1Q83.0 214.4 83.6 214.4Q84.3 214.4 84.9 214.1Q85.4 213.8 85.7 213.2Q86.1 212.7 86.1 212.0L86.1 209.5Q86.1 208.8 85.6 208.4Q85.1 208.0 84.3 208.0Q83.5 208.0 82.9 208.4Q82.3 208.8 82.1 209.5L80.1 208.6Q80.4 207.8 81.0 207.2Q81.7 206.6 82.5 206.3Q83.4 206.0 84.3 206.0Q85.5 206.0 86.5 206.4Q87.4 206.9 87.9 207.7Q88.4 208.4 88.4 209.5L88.4 216.0L86.2 216.0L86.2 214.3L86.7 214.3Q86.3 214.9 85.8 215.3Q85.3 215.8 84.6 216.0Q83.9 216.2 83.1 216.2ZM98.5 216.2Q97.0 216.2 95.9 215.5Q94.7 214.9 94.1 213.7Q93.4 212.5 93.4 211.1Q93.4 209.6 94.1 208.5Q94.7 207.3 95.9 206.7Q97.0 206.0 98.5 206.0Q99.6 206.0 100.5 206.4Q101.4 206.7 102.0 207.4Q102.7 208.0 103.0 208.9L100.9 209.8Q100.6 209.1 100.0 208.6Q99.3 208.2 98.5 208.2Q97.7 208.2 97.1 208.5Q96.5 208.9 96.2 209.6Q95.8 210.2 95.8 211.1Q95.8 212.0 96.2 212.6Q96.5 213.3 97.1 213.7Q97.7 214.1 98.5 214.1Q99.4 214.1 100.0 213.6Q100.6 213.2 100.9 212.4L103.0 213.3Q102.7 214.2 102.0 214.8Q101.4 215.5 100.5 215.8Q99.6 216.2 98.5 216.2ZM104.7 216.0L104.7 202.4L107.1 202.4L107.1 208.1L106.8 207.8Q107.1 206.9 107.9 206.5Q108.7 206.0 109.7 206.0Q110.8 206.0 111.6 206.5Q112.5 206.9 112.9 207.8Q113.4 208.6 113.4 209.7L113.4 216.0L111.1 216.0L111.1 210.3Q111.1 209.6 110.8 209.1Q110.6 208.7 110.1 208.4Q109.7 208.2 109.1 208.2Q108.5 208.2 108.1 208.4Q107.6 208.7 107.3 209.1Q107.1 209.6 107.1 210.3L107.1 216.0L104.7 216.0ZM118.4 216.2Q117.4 216.2 116.6 215.9Q115.8 215.5 115.4 214.9Q115.0 214.3 115.0 213.4Q115.0 212.6 115.4 212.0Q115.7 211.3 116.5 210.9Q117.3 210.5 118.4 210.3L121.6 209.8L121.6 211.5L118.8 212.0Q118.2 212.2 117.8 212.5Q117.5 212.8 117.5 213.3Q117.5 213.8 117.9 214.1Q118.2 214.4 118.8 214.4Q119.6 214.4 120.1 214.1Q120.7 213.8 121.0 213.2Q121.3 212.7 121.3 212.0L121.3 209.5Q121.3 208.8 120.8 208.4Q120.3 208.0 119.5 208.0Q118.8 208.0 118.2 208.4Q117.6 208.8 117.3 209.5L115.4 208.6Q115.7 207.8 116.3 207.2Q116.9 206.6 117.8 206.3Q118.6 206.0 119.6 206.0Q120.8 206.0 121.7 206.4Q122.6 206.9 123.2 207.7Q123.7 208.4 123.7 209.5L123.7 216.0L121.4 216.0L121.4 214.3L122.0 214.3Q121.6 214.9 121.0 215.3Q120.5 215.8 119.9 216.0Q119.2 216.2 118.4 216.2ZM125.8 216.0L125.8 202.4L128.2 202.4L128.2 216.0L125.8 216.0ZM130.4 216.0L130.4 202.4L132.7 202.4L132.7 216.0L130.4 216.0ZM139.6 216.2Q138.1 216.2 136.9 215.5Q135.8 214.8 135.2 213.7Q134.5 212.5 134.5 211.1Q134.5 209.6 135.2 208.5Q135.8 207.3 136.9 206.7Q138.0 206.0 139.4 206.0Q140.5 206.0 141.4 206.4Q142.3 206.7 142.9 207.4Q143.5 208.1 143.8 208.9Q144.2 209.8 144.2 210.8Q144.2 211.0 144.1 211.3Q144.1 211.6 144.0 211.8L136.5 211.8L136.5 210.0L142.7 210.0L141.6 210.8Q141.8 210.0 141.5 209.3Q141.3 208.7 140.7 208.3Q140.2 207.9 139.4 207.9Q138.6 207.9 138.1 208.3Q137.5 208.7 137.2 209.4Q136.9 210.1 137.0 211.1Q136.9 212.0 137.2 212.7Q137.5 213.4 138.2 213.8Q138.8 214.1 139.6 214.1Q140.4 214.1 141.0 213.8Q141.5 213.5 141.9 212.9L143.8 213.8Q143.5 214.5 142.9 215.1Q142.3 215.6 141.4 215.9Q140.6 216.2 139.6 216.2ZM145.9 216.0L145.9 206.2L148.2 206.2L148.2 208.1L148.0 207.8Q148.3 206.9 149.1 206.5Q149.9 206.0 150.9 206.0Q152.0 206.0 152.8 206.5Q153.7 206.9 154.2 207.8Q154.6 208.6 154.6 209.7L154.6 216.0L152.3 216.0L152.3 210.3Q152.3 209.6 152.0 209.1Q151.8 208.7 151.3 208.4Q150.9 208.2 150.3 208.2Q149.7 208.2 149.3 208.4Q148.8 208.7 148.5 209.1Q148.3 209.6 148.3 210.3L148.3 216.0L145.9 216.0ZM161.4 220.0Q160.3 220.0 159.3 219.6Q158.4 219.2 157.7 218.6Q157.1 218.0 156.7 217.1L158.9 216.3Q159.2 217.0 159.8 217.4Q160.4 217.8 161.4 217.8Q162.1 217.8 162.6 217.5Q163.2 217.3 163.5 216.7Q163.8 216.2 163.8 215.5L163.8 213.3L164.2 213.8Q163.7 214.7 162.9 215.2Q162.1 215.6 161.0 215.6Q159.6 215.6 158.5 215.0Q157.4 214.3 156.8 213.3Q156.2 212.2 156.2 210.8Q156.2 209.4 156.8 208.3Q157.4 207.2 158.5 206.6Q159.6 206.0 160.9 206.0Q162.0 206.0 162.9 206.5Q163.7 206.9 164.2 207.8L163.9 208.4L163.9 206.2L166.2 206.2L166.2 215.5Q166.2 216.8 165.5 217.8Q164.9 218.8 163.8 219.4Q162.8 220.0 161.4 220.0ZM161.3 213.4Q162.0 213.4 162.6 213.1Q163.1 212.8 163.5 212.2Q163.8 211.6 163.8 210.8Q163.8 210.0 163.5 209.4Q163.1 208.8 162.6 208.5Q162.0 208.2 161.3 208.2Q160.5 208.2 159.9 208.5Q159.3 208.8 159.0 209.4Q158.7 210.0 158.7 210.8Q158.7 211.6 159.0 212.2Q159.3 212.7 159.9 213.1Q160.5 213.4 161.3 213.4ZM173.0 216.2Q171.5 216.2 170.3 215.5Q169.2 214.8 168.6 213.7Q168.0 212.5 168.0 211.1Q168.0 209.6 168.6 208.5Q169.2 207.3 170.3 206.7Q171.4 206.0 172.8 206.0Q174.0 206.0 174.8 206.4Q175.7 206.7 176.3 207.4Q176.9 208.1 177.3 208.9Q177.6 209.8 177.6 210.8Q177.6 211.0 177.6 211.3Q177.5 211.6 177.5 211.8L169.9 211.8L169.9 210.0L176.1 210.0L175.0 210.8Q175.2 210.0 174.9 209.3Q174.7 208.7 174.1 208.3Q173.6 207.9 172.8 207.9Q172.1 207.9 171.5 208.3Q170.9 208.7 170.6 209.4Q170.3 210.1 170.4 211.1Q170.3 212.0 170.6 212.7Q171.0 213.4 171.6 213.8Q172.2 214.1 173.0 214.1Q173.8 214.1 174.4 213.8Q175.0 213.5 175.3 212.9L177.2 213.8Q176.9 214.5 176.3 215.1Q175.7 215.6 174.8 215.9Q174.0 216.2 173.0 216.2Z"/><path d="M188.3 205l6 5.5-6 5.5" fill="none" stroke="#8BC53F" stroke-width="2.4" stroke-linecap="round" stroke-linejoin="round"/></g><rect x=".75" y=".75" width="578.5" height="248.5" rx="21.3" fill="none" stroke="#1D5764" stroke-width="1.5"/></svg>