<svg xmlns="http://www.w3.org/2000/svg" width="580" height="250" viewBox="0 0 580 250" role="img" aria-labelledby="t"><title id="t">Partners: Share resources, experience and opportunities to grow the startup ecosystem together.</title><defs><clipPath id="f"><rect width="580" height="250" rx="22"/></clipPath></defs><g clip-path="url(#f)"><rect width="580" height="250" fill="#0B3640"/><defs><clipPath id="ca"><circle cx="458" cy="128" r="64"/></clipPath></defs><circle cx="526" cy="128" r="64" fill="#8BC53F" clip-path="url(#ca)"/><circle cx="458" cy="128" r="64" fill="none" stroke="#2DB3AE" stroke-width="3"/><circle cx="526" cy="128" r="64" fill="none" stroke="#2DB3AE" stroke-width="3"/><path fill="#F3F6EE"  d="M40.4 78.0L40.4 52.7L49.9 52.7Q52.5 52.7 54.5 53.6Q56.5 54.5 57.6 56.3Q58.7 58.1 58.7 60.7Q58.7 63.2 57.6 65.0Q56.4 66.8 54.4 67.7Q52.5 68.7 49.9 68.7L45.1 68.7L45.1 78.0L40.4 78.0ZM45.1 64.6L50.0 64.6Q51.2 64.6 52.1 64.1Q53.0 63.6 53.6 62.7Q54.1 61.8 54.1 60.7Q54.1 59.5 53.6 58.6Q53.0 57.7 52.1 57.2Q51.2 56.8 50.0 56.8L45.1 56.8L45.1 64.6ZM66.2 78.4Q64.3 78.4 62.8 77.8Q61.4 77.1 60.6 75.9Q59.8 74.7 59.8 73.1Q59.8 71.6 60.5 70.4Q61.2 69.2 62.7 68.4Q64.1 67.5 66.2 67.2L72.3 66.2L72.3 69.6L67.1 70.5Q65.8 70.7 65.1 71.3Q64.5 71.9 64.5 72.9Q64.5 73.9 65.2 74.5Q65.9 75.0 67.0 75.0Q68.4 75.0 69.5 74.4Q70.6 73.8 71.2 72.8Q71.7 71.7 71.7 70.5L71.7 65.7Q71.7 64.5 70.8 63.7Q69.9 62.9 68.4 62.9Q66.9 62.9 65.8 63.7Q64.7 64.5 64.2 65.7L60.6 63.9Q61.1 62.5 62.3 61.4Q63.5 60.3 65.1 59.7Q66.7 59.1 68.5 59.1Q70.8 59.1 72.5 59.9Q74.3 60.8 75.2 62.3Q76.2 63.7 76.2 65.7L76.2 78.0L72.0 78.0L72.0 74.8L73.0 74.8Q72.2 76.0 71.2 76.8Q70.2 77.6 69.0 78.0Q67.7 78.4 66.2 78.4ZM79.9 78.0L79.9 59.5L84.1 59.5L84.1 63.6L83.8 63.0Q84.4 60.9 85.8 60.1Q87.2 59.3 89.1 59.3L90.2 59.3L90.2 63.3L88.6 63.3Q86.7 63.3 85.5 64.4Q84.4 65.6 84.4 67.7L84.4 78.0L79.9 78.0ZM101.2 78.2Q98.0 78.2 96.3 76.5Q94.6 74.8 94.6 71.7L94.6 63.5L91.4 63.5L91.4 59.5L91.7 59.5Q93.1 59.5 93.8 58.8Q94.6 58.1 94.6 56.7L94.6 55.3L99.1 55.3L99.1 59.5L103.3 59.5L103.3 63.5L99.1 63.5L99.1 71.4Q99.1 72.3 99.4 73.0Q99.7 73.6 100.4 74.0Q101.1 74.3 102.2 74.3Q102.4 74.3 102.7 74.3Q103.1 74.2 103.4 74.2L103.4 78.0Q102.9 78.1 102.3 78.1Q101.7 78.2 101.2 78.2ZM106.4 78.0L106.4 59.5L110.6 59.5L110.6 63.2L110.2 62.5Q110.9 60.8 112.3 60.0Q113.8 59.1 115.8 59.1Q117.8 59.1 119.4 60.0Q121.0 60.9 121.9 62.5Q122.8 64.0 122.8 66.1L122.8 78.0L118.3 78.0L118.3 67.2Q118.3 65.9 117.8 65.0Q117.4 64.2 116.5 63.7Q115.7 63.2 114.6 63.2Q113.5 63.2 112.6 63.7Q111.8 64.2 111.3 65.1Q110.8 65.9 110.8 67.2L110.8 78.0L106.4 78.0ZM134.9 78.4Q132.0 78.4 129.9 77.1Q127.7 75.8 126.6 73.6Q125.4 71.4 125.4 68.7Q125.4 65.9 126.6 63.8Q127.8 61.6 129.9 60.4Q132.0 59.1 134.6 59.1Q136.7 59.1 138.4 59.8Q140.0 60.5 141.2 61.8Q142.3 63.0 142.9 64.7Q143.6 66.3 143.6 68.1Q143.6 68.6 143.5 69.1Q143.5 69.6 143.3 70.0L129.1 70.0L129.1 66.6L140.8 66.6L138.7 68.2Q139.0 66.6 138.6 65.4Q138.1 64.2 137.1 63.5Q136.0 62.8 134.6 62.8Q133.1 62.8 132.1 63.5Q131.0 64.2 130.4 65.5Q129.9 66.9 130.0 68.8Q129.9 70.5 130.5 71.8Q131.0 73.1 132.2 73.8Q133.4 74.5 134.9 74.5Q136.5 74.5 137.5 73.9Q138.6 73.2 139.2 72.1L142.8 73.9Q142.3 75.2 141.1 76.2Q140.0 77.3 138.4 77.8Q136.8 78.4 134.9 78.4ZM146.5 78.0L146.5 59.5L150.7 59.5L150.7 63.6L150.4 63.0Q151.0 60.9 152.4 60.1Q153.8 59.3 155.7 59.3L156.8 59.3L156.8 63.3L155.2 63.3Q153.3 63.3 152.1 64.4Q151.0 65.6 151.0 67.7L151.0 78.0L146.5 78.0ZM165.9 78.4Q162.9 78.4 160.7 77.0Q158.5 75.6 157.7 73.2L161.0 71.6Q161.8 73.1 163.0 74.0Q164.3 74.9 165.9 74.9Q167.1 74.9 167.8 74.4Q168.5 73.8 168.5 72.9Q168.5 72.4 168.2 72.0Q167.9 71.7 167.4 71.4Q167.0 71.2 166.4 71.0L163.3 70.1Q161.0 69.5 159.8 68.1Q158.6 66.7 158.6 64.8Q158.6 63.1 159.5 61.8Q160.3 60.5 161.9 59.8Q163.4 59.1 165.4 59.1Q168.0 59.1 170.0 60.4Q172.1 61.6 172.9 63.9L169.5 65.5Q169.0 64.2 167.9 63.5Q166.8 62.8 165.4 62.8Q164.3 62.8 163.6 63.3Q163.0 63.8 163.0 64.6Q163.0 65.1 163.2 65.5Q163.5 65.8 164.0 66.1Q164.5 66.3 165.1 66.5L168.1 67.4Q170.4 68.1 171.6 69.4Q172.9 70.8 172.9 72.8Q172.9 74.4 172.0 75.7Q171.1 77.0 169.5 77.7Q168.0 78.4 165.9 78.4Z"/><path fill="#A3C4C1"  d="M44.3 118.2Q43.0 118.2 41.9 117.7Q40.8 117.2 40.0 116.4Q39.3 115.5 38.9 114.5L40.5 113.8Q41.0 115.2 42.0 115.9Q43.0 116.6 44.3 116.6Q45.1 116.6 45.7 116.3Q46.3 116.1 46.7 115.6Q47.0 115.1 47.0 114.5Q47.0 113.6 46.5 113.1Q46.0 112.6 45.1 112.4L42.6 111.6Q41.1 111.1 40.3 110.1Q39.5 109.1 39.5 107.8Q39.5 106.7 40.0 105.8Q40.6 105.0 41.5 104.5Q42.5 104.0 43.8 104.0Q45.0 104.0 46.0 104.4Q47.0 104.9 47.7 105.6Q48.4 106.4 48.7 107.3L47.2 108.0Q46.8 106.8 45.9 106.2Q45.0 105.6 43.8 105.6Q43.0 105.6 42.5 105.9Q41.9 106.1 41.6 106.6Q41.3 107.1 41.3 107.7Q41.3 108.5 41.8 109.1Q42.3 109.7 43.2 110.0L45.5 110.7Q47.2 111.2 48.0 112.1Q48.8 113.0 48.8 114.4Q48.8 115.5 48.3 116.4Q47.7 117.2 46.6 117.7Q45.6 118.2 44.3 118.2ZM51.3 118.0L51.3 104.0L53.0 104.0L53.0 110.0L52.7 109.8Q53.1 108.9 53.9 108.3Q54.7 107.8 55.8 107.8Q56.9 107.8 57.7 108.3Q58.6 108.8 59.1 109.6Q59.6 110.5 59.6 111.5L59.6 118.0L57.8 118.0L57.8 112.1Q57.8 111.3 57.5 110.7Q57.2 110.1 56.7 109.8Q56.1 109.5 55.4 109.5Q54.7 109.5 54.2 109.8Q53.6 110.1 53.3 110.7Q53.0 111.3 53.0 112.1L53.0 118.0L51.3 118.0ZM64.9 118.2Q64.0 118.2 63.2 117.9Q62.4 117.5 62.0 116.9Q61.6 116.2 61.6 115.4Q61.6 114.6 61.9 114.0Q62.3 113.3 63.0 112.9Q63.7 112.4 64.9 112.2L68.6 111.6L68.6 113.1L65.2 113.6Q64.3 113.8 63.9 114.3Q63.4 114.7 63.4 115.3Q63.4 115.9 63.9 116.4Q64.4 116.8 65.1 116.8Q66.1 116.8 66.8 116.4Q67.5 116.0 67.9 115.3Q68.3 114.6 68.3 113.8L68.3 111.2Q68.3 110.4 67.7 109.9Q67.1 109.4 66.1 109.4Q65.2 109.4 64.6 109.8Q63.9 110.3 63.6 111.0L62.1 110.2Q62.4 109.5 63.0 109.0Q63.6 108.4 64.4 108.1Q65.2 107.8 66.1 107.8Q67.3 107.8 68.1 108.3Q69.0 108.7 69.5 109.5Q70.0 110.2 70.0 111.2L70.0 118.0L68.3 118.0L68.3 116.1L68.6 116.2Q68.3 116.8 67.8 117.3Q67.2 117.7 66.5 118.0Q65.8 118.2 64.9 118.2ZM72.6 118.0L72.6 108.0L74.3 108.0L74.3 109.9L74.1 109.6Q74.5 108.8 75.2 108.3Q75.9 107.9 77.0 107.9L77.6 107.9L77.6 109.6L76.7 109.6Q75.7 109.6 75.0 110.2Q74.4 110.9 74.4 112.1L74.4 118.0L72.6 118.0ZM83.7 118.2Q82.3 118.2 81.1 117.5Q80.0 116.9 79.4 115.7Q78.7 114.5 78.7 113.0Q78.7 111.5 79.3 110.3Q80.0 109.2 81.1 108.5Q82.2 107.8 83.6 107.8Q84.7 107.8 85.5 108.2Q86.4 108.6 87.0 109.3Q87.6 110.0 87.9 110.8Q88.2 111.7 88.2 112.6Q88.2 112.8 88.2 113.1Q88.2 113.3 88.1 113.5L80.0 113.5L80.0 112.1L87.2 112.1L86.3 112.7Q86.5 111.7 86.2 111.0Q85.8 110.2 85.1 109.8Q84.4 109.3 83.6 109.3Q82.7 109.3 82.0 109.8Q81.2 110.2 80.9 111.1Q80.5 111.9 80.5 113.0Q80.4 114.1 80.9 114.9Q81.3 115.7 82.1 116.2Q82.8 116.6 83.7 116.6Q84.7 116.6 85.4 116.2Q86.1 115.7 86.5 115.0L88.0 115.7Q87.7 116.4 87.1 117.0Q86.4 117.6 85.6 117.9Q84.7 118.2 83.7 118.2ZM93.7 118.0L93.7 108.0L95.4 108.0L95.4 109.9L95.2 109.6Q95.5 108.8 96.3 108.3Q97.0 107.9 98.0 107.9L98.6 107.9L98.6 109.6L97.8 109.6Q96.7 109.6 96.1 110.2Q95.4 110.9 95.4 112.1L95.4 118.0L93.7 118.0ZM104.8 118.2Q103.3 118.2 102.2 117.5Q101.0 116.9 100.4 115.7Q99.7 114.5 99.7 113.0Q99.7 111.5 100.4 110.3Q101.0 109.2 102.1 108.5Q103.2 107.8 104.6 107.8Q105.7 107.8 106.6 108.2Q107.4 108.6 108.0 109.3Q108.6 110.0 109.0 110.8Q109.3 111.7 109.3 112.6Q109.3 112.8 109.3 113.1Q109.2 113.3 109.2 113.5L101.0 113.5L101.0 112.1L108.2 112.1L107.4 112.7Q107.5 111.7 107.2 111.0Q106.8 110.2 106.2 109.8Q105.5 109.3 104.6 109.3Q103.7 109.3 103.0 109.8Q102.3 110.2 101.9 111.1Q101.5 111.9 101.6 113.0Q101.5 114.1 101.9 114.9Q102.3 115.7 103.1 116.2Q103.9 116.6 104.8 116.6Q105.8 116.6 106.5 116.2Q107.1 115.7 107.6 115.0L109.0 115.7Q108.7 116.4 108.1 117.0Q107.5 117.6 106.6 117.9Q105.8 118.2 104.8 118.2ZM115.1 118.2Q113.6 118.2 112.5 117.5Q111.4 116.7 110.9 115.5L112.3 114.8Q112.7 115.7 113.4 116.2Q114.2 116.7 115.1 116.7Q115.9 116.7 116.4 116.4Q117.0 116.0 117.0 115.3Q117.0 114.9 116.7 114.6Q116.5 114.4 116.1 114.2Q115.8 114.0 115.5 114.0L114.0 113.5Q112.6 113.2 112.0 112.4Q111.4 111.7 111.4 110.8Q111.4 109.9 111.8 109.2Q112.3 108.5 113.1 108.2Q113.9 107.8 114.8 107.8Q116.2 107.8 117.2 108.5Q118.3 109.1 118.7 110.3L117.3 111.0Q117.0 110.2 116.3 109.8Q115.6 109.3 114.8 109.3Q114.0 109.3 113.6 109.7Q113.1 110.1 113.1 110.6Q113.1 111.1 113.4 111.3Q113.6 111.6 113.9 111.7Q114.2 111.9 114.5 112.0L116.1 112.5Q117.4 112.8 118.0 113.5Q118.7 114.3 118.7 115.3Q118.7 116.2 118.2 116.8Q117.8 117.5 117.0 117.9Q116.2 118.2 115.1 118.2ZM125.7 118.2Q124.3 118.2 123.1 117.5Q121.9 116.9 121.2 115.7Q120.6 114.5 120.6 113.0Q120.6 111.5 121.2 110.3Q121.9 109.2 123.1 108.5Q124.2 107.8 125.7 107.8Q127.2 107.8 128.3 108.5Q129.5 109.2 130.1 110.3Q130.8 111.5 130.8 113.0Q130.8 114.5 130.1 115.7Q129.4 116.9 128.3 117.6Q127.1 118.2 125.7 118.2ZM125.7 116.6Q126.6 116.6 127.4 116.1Q128.1 115.6 128.6 114.8Q129.0 114.0 129.0 113.0Q129.0 112.0 128.6 111.2Q128.1 110.4 127.4 109.9Q126.6 109.5 125.7 109.5Q124.8 109.5 124.0 109.9Q123.3 110.4 122.8 111.2Q122.4 112.0 122.4 113.0Q122.4 114.0 122.8 114.8Q123.3 115.6 124.0 116.1Q124.8 116.6 125.7 116.6ZM136.6 118.2Q135.5 118.2 134.7 117.7Q133.8 117.2 133.3 116.3Q132.9 115.4 132.9 114.3L132.9 108.0L134.6 108.0L134.6 114.1Q134.6 114.8 134.9 115.4Q135.2 115.9 135.7 116.2Q136.3 116.6 137.0 116.6Q137.7 116.6 138.2 116.2Q138.8 115.9 139.1 115.3Q139.4 114.7 139.4 113.9L139.4 108.0L141.1 108.0L141.1 118.0L139.4 118.0L139.4 116.1L139.7 116.2Q139.4 117.2 138.5 117.7Q137.7 118.2 136.6 118.2ZM143.8 118.0L143.8 108.0L145.5 108.0L145.5 109.9L145.3 109.6Q145.6 108.8 146.4 108.3Q147.1 107.9 148.1 107.9L148.7 107.9L148.7 109.6L147.9 109.6Q146.8 109.6 146.2 110.2Q145.5 110.9 145.5 112.1L145.5 118.0L143.8 118.0ZM154.9 118.2Q153.4 118.2 152.3 117.5Q151.2 116.8 150.5 115.7Q149.9 114.5 149.9 113.0Q149.9 111.5 150.5 110.3Q151.2 109.2 152.3 108.5Q153.4 107.8 154.9 107.8Q155.9 107.8 156.7 108.2Q157.6 108.5 158.2 109.1Q158.9 109.7 159.2 110.5L157.6 111.2Q157.3 110.5 156.6 110.0Q155.8 109.5 154.9 109.5Q154.0 109.5 153.3 109.9Q152.5 110.4 152.1 111.2Q151.7 112.0 151.7 113.0Q151.7 114.0 152.1 114.8Q152.5 115.6 153.3 116.1Q154.0 116.6 154.9 116.6Q155.8 116.6 156.6 116.1Q157.3 115.6 157.6 114.8L159.2 115.5Q158.9 116.3 158.2 116.9Q157.6 117.5 156.7 117.9Q155.9 118.2 154.9 118.2ZM166.0 118.2Q164.6 118.2 163.4 117.5Q162.3 116.9 161.7 115.7Q161.0 114.5 161.0 113.0Q161.0 111.5 161.7 110.3Q162.3 109.2 163.4 108.5Q164.5 107.8 165.9 107.8Q167.0 107.8 167.8 108.2Q168.7 108.6 169.3 109.3Q169.9 110.0 170.2 110.8Q170.5 111.7 170.5 112.6Q170.5 112.8 170.5 113.1Q170.5 113.3 170.5 113.5L162.3 113.5L162.3 112.1L169.5 112.1L168.6 112.7Q168.8 111.7 168.5 111.0Q168.1 110.2 167.4 109.8Q166.7 109.3 165.9 109.3Q165.0 109.3 164.3 109.8Q163.6 110.2 163.2 111.1Q162.8 111.9 162.8 113.0Q162.8 114.1 163.2 114.9Q163.6 115.7 164.4 116.2Q165.1 116.6 166.0 116.6Q167.0 116.6 167.7 116.2Q168.4 115.7 168.8 115.0L170.3 115.7Q170.0 116.4 169.4 117.0Q168.7 117.6 167.9 117.9Q167.0 118.2 166.0 118.2ZM176.4 118.2Q174.9 118.2 173.8 117.5Q172.6 116.7 172.2 115.5L173.6 114.8Q174.0 115.7 174.7 116.2Q175.5 116.7 176.4 116.7Q177.2 116.7 177.7 116.4Q178.2 116.0 178.2 115.3Q178.2 114.9 178.0 114.6Q177.7 114.4 177.4 114.2Q177.0 114.0 176.7 114.0L175.2 113.5Q173.9 113.2 173.3 112.4Q172.7 111.7 172.7 110.8Q172.7 109.9 173.1 109.2Q173.6 108.5 174.3 108.2Q175.1 107.8 176.1 107.8Q177.4 107.8 178.5 108.5Q179.5 109.1 180.0 110.3L178.6 111.0Q178.2 110.2 177.6 109.8Q176.9 109.3 176.1 109.3Q175.3 109.3 174.9 109.7Q174.4 110.1 174.4 110.6Q174.4 111.1 174.6 111.3Q174.9 111.6 175.2 111.7Q175.5 111.9 175.8 112.0L177.4 112.5Q178.6 112.8 179.3 113.5Q180.0 114.3 180.0 115.3Q180.0 116.2 179.5 116.8Q179.1 117.5 178.2 117.9Q177.4 118.2 176.4 118.2ZM182.5 120.6L182.5 119.7Q183.1 119.6 183.4 119.2Q183.7 118.7 183.7 118.0L182.9 118.0L182.9 115.8L184.7 115.8L184.7 117.3Q184.7 118.7 184.2 119.5Q183.6 120.3 182.5 120.6ZM195.6 118.2Q194.1 118.2 193.0 117.5Q191.9 116.9 191.2 115.7Q190.6 114.5 190.6 113.0Q190.6 111.5 191.2 110.3Q191.8 109.2 192.9 108.5Q194.0 107.8 195.4 107.8Q196.5 107.8 197.4 108.2Q198.2 108.6 198.8 109.3Q199.4 110.0 199.8 110.8Q200.1 111.7 200.1 112.6Q200.1 112.8 200.1 113.1Q200.0 113.3 200.0 113.5L191.8 113.5L191.8 112.1L199.0 112.1L198.2 112.7Q198.4 111.7 198.0 111.0Q197.7 110.2 197.0 109.8Q196.3 109.3 195.4 109.3Q194.5 109.3 193.8 109.8Q193.1 110.2 192.7 111.1Q192.3 111.9 192.4 113.0Q192.3 114.1 192.7 114.9Q193.1 115.7 193.9 116.2Q194.7 116.6 195.6 116.6Q196.6 116.6 197.3 116.2Q198.0 115.7 198.4 115.0L199.8 115.7Q199.5 116.4 198.9 117.0Q198.3 117.6 197.4 117.9Q196.6 118.2 195.6 118.2ZM201.0 118.0L204.5 113.0L201.0 108.0L203.1 108.0L206.1 112.4L205.0 112.4L208.0 108.0L210.1 108.0L206.6 113.0L210.1 118.0L208.0 118.0L205.0 113.7L206.1 113.7L203.1 118.0L201.0 118.0ZM211.6 121.7L211.6 108.0L213.3 108.0L213.3 110.2L213.1 109.8Q213.6 108.9 214.6 108.3Q215.5 107.8 216.8 107.8Q218.2 107.8 219.3 108.5Q220.4 109.2 221.1 110.4Q221.7 111.5 221.7 113.0Q221.7 114.5 221.1 115.7Q220.4 116.9 219.3 117.5Q218.2 118.2 216.8 118.2Q215.6 118.2 214.6 117.7Q213.6 117.2 213.1 116.2L213.3 115.9L213.3 121.7L211.6 121.7ZM216.6 116.6Q217.6 116.6 218.3 116.1Q219.1 115.6 219.5 114.8Q219.9 114.0 219.9 113.0Q219.9 112.0 219.5 111.2Q219.1 110.4 218.3 109.9Q217.6 109.5 216.6 109.5Q215.7 109.5 214.9 109.9Q214.2 110.4 213.8 111.2Q213.3 112.0 213.3 113.0Q213.3 114.0 213.8 114.8Q214.2 115.6 214.9 116.1Q215.7 116.6 216.6 116.6ZM228.6 118.2Q227.1 118.2 226.0 117.5Q224.9 116.9 224.2 115.7Q223.6 114.5 223.6 113.0Q223.6 111.5 224.2 110.3Q224.8 109.2 225.9 108.5Q227.0 107.8 228.4 107.8Q229.5 107.8 230.4 108.2Q231.2 108.6 231.8 109.3Q232.5 110.0 232.8 110.8Q233.1 111.7 233.1 112.6Q233.1 112.8 233.1 113.1Q233.1 113.3 233.0 113.5L224.8 113.5L224.8 112.1L232.0 112.1L231.2 112.7Q231.4 111.7 231.0 111.0Q230.7 110.2 230.0 109.8Q229.3 109.3 228.4 109.3Q227.5 109.3 226.8 109.8Q226.1 110.2 225.7 111.1Q225.3 111.9 225.4 113.0Q225.3 114.1 225.7 114.9Q226.1 115.7 226.9 116.2Q227.7 116.6 228.6 116.6Q229.6 116.6 230.3 116.2Q231.0 115.7 231.4 115.0L232.8 115.7Q232.5 116.4 231.9 117.0Q231.3 117.6 230.4 117.9Q229.6 118.2 228.6 118.2ZM235.3 118.0L235.3 108.0L237.0 108.0L237.0 109.9L236.8 109.6Q237.2 108.8 237.9 108.3Q238.6 107.9 239.7 107.9L240.3 107.9L240.3 109.6L239.4 109.6Q238.4 109.6 237.7 110.2Q237.1 110.9 237.1 112.1L237.1 118.0L235.3 118.0ZM241.8 118.0L241.8 108.0L243.5 108.0L243.5 118.0L241.8 118.0ZM241.8 106.4L241.8 104.2L243.5 104.2L243.5 106.4L241.8 106.4ZM250.8 118.2Q249.3 118.2 248.2 117.5Q247.1 116.9 246.4 115.7Q245.8 114.5 245.8 113.0Q245.8 111.5 246.4 110.3Q247.1 109.2 248.2 108.5Q249.3 107.8 250.6 107.8Q251.7 107.8 252.6 108.2Q253.5 108.6 254.1 109.3Q254.7 110.0 255.0 110.8Q255.3 111.7 255.3 112.6Q255.3 112.8 255.3 113.1Q255.3 113.3 255.2 113.5L247.0 113.5L247.0 112.1L254.2 112.1L253.4 112.7Q253.6 111.7 253.2 111.0Q252.9 110.2 252.2 109.8Q251.5 109.3 250.6 109.3Q249.8 109.3 249.0 109.8Q248.3 110.2 247.9 111.1Q247.5 111.9 247.6 113.0Q247.5 114.1 247.9 114.9Q248.4 115.7 249.1 116.2Q249.9 116.6 250.8 116.6Q251.8 116.6 252.5 116.2Q253.2 115.7 253.6 115.0L255.0 115.7Q254.7 116.4 254.1 117.0Q253.5 117.6 252.7 117.9Q251.8 118.2 250.8 118.2ZM257.5 118.0L257.5 108.0L259.2 108.0L259.2 110.0L259.0 109.8Q259.3 108.9 260.2 108.3Q261.0 107.8 262.1 107.8Q263.2 107.8 264.0 108.3Q264.9 108.8 265.3 109.6Q265.8 110.5 265.8 111.5L265.8 118.0L264.1 118.0L264.1 112.1Q264.1 111.3 263.8 110.7Q263.5 110.1 263.0 109.8Q262.4 109.5 261.7 109.5Q261.0 109.5 260.4 109.8Q259.9 110.1 259.6 110.7Q259.3 111.3 259.3 112.1L259.3 118.0L257.5 118.0ZM272.9 118.2Q271.4 118.2 270.3 117.5Q269.2 116.8 268.5 115.7Q267.9 114.5 267.9 113.0Q267.9 111.5 268.5 110.3Q269.2 109.2 270.3 108.5Q271.4 107.8 272.9 107.8Q273.9 107.8 274.7 108.2Q275.6 108.5 276.2 109.1Q276.9 109.7 277.2 110.5L275.6 111.2Q275.3 110.5 274.6 110.0Q273.9 109.5 272.9 109.5Q272.0 109.5 271.3 109.9Q270.5 110.4 270.1 111.2Q269.7 112.0 269.7 113.0Q269.7 114.0 270.1 114.8Q270.5 115.6 271.3 116.1Q272.0 116.6 272.9 116.6Q273.9 116.6 274.6 116.1Q275.3 115.6 275.6 114.8L277.2 115.5Q276.9 116.3 276.2 116.9Q275.6 117.5 274.7 117.9Q273.9 118.2 272.9 118.2ZM284.0 118.2Q282.6 118.2 281.5 117.5Q280.3 116.9 279.7 115.7Q279.0 114.5 279.0 113.0Q279.0 111.5 279.7 110.3Q280.3 109.2 281.4 108.5Q282.5 107.8 283.9 107.8Q285.0 107.8 285.8 108.2Q286.7 108.6 287.3 109.3Q287.9 110.0 288.2 110.8Q288.6 111.7 288.6 112.6Q288.6 112.8 288.5 113.1Q288.5 113.3 288.5 113.5L280.3 113.5L280.3 112.1L287.5 112.1L286.6 112.7Q286.8 111.7 286.5 111.0Q286.1 110.2 285.4 109.8Q284.8 109.3 283.9 109.3Q283.0 109.3 282.3 109.8Q281.6 110.2 281.2 111.1Q280.8 111.9 280.9 113.0Q280.8 114.1 281.2 114.9Q281.6 115.7 282.4 116.2Q283.1 116.6 284.0 116.6Q285.0 116.6 285.7 116.2Q286.4 115.7 286.8 115.0L288.3 115.7Q288.0 116.4 287.4 117.0Q286.8 117.6 285.9 117.9Q285.1 118.2 284.0 118.2ZM296.9 118.2Q295.9 118.2 295.2 117.9Q294.4 117.5 294.0 116.9Q293.6 116.2 293.6 115.4Q293.6 114.6 293.9 114.0Q294.3 113.3 295.0 112.9Q295.7 112.4 296.9 112.2L300.5 111.6L300.5 113.1L297.2 113.6Q296.3 113.8 295.8 114.3Q295.4 114.7 295.4 115.3Q295.4 115.9 295.9 116.4Q296.4 116.8 297.1 116.8Q298.1 116.8 298.8 116.4Q299.5 116.0 299.9 115.3Q300.2 114.6 300.2 113.8L300.2 111.2Q300.2 110.4 299.6 109.9Q299.0 109.4 298.1 109.4Q297.2 109.4 296.6 109.8Q295.9 110.3 295.6 111.0L294.1 110.2Q294.4 109.5 295.0 109.0Q295.6 108.4 296.4 108.1Q297.2 107.8 298.1 107.8Q299.2 107.8 300.1 108.3Q301.0 108.7 301.5 109.5Q302.0 110.2 302.0 111.2L302.0 118.0L300.3 118.0L300.3 116.1L300.6 116.2Q300.3 116.8 299.8 117.3Q299.2 117.7 298.5 118.0Q297.8 118.2 296.9 118.2ZM304.6 118.0L304.6 108.0L306.3 108.0L306.3 110.0L306.0 109.8Q306.4 108.9 307.2 108.3Q308.1 107.8 309.2 107.8Q310.2 107.8 311.1 108.3Q311.9 108.8 312.4 109.6Q312.9 110.5 312.9 111.5L312.9 118.0L311.2 118.0L311.2 112.1Q311.2 111.3 310.9 110.7Q310.6 110.1 310.0 109.8Q309.5 109.5 308.8 109.5Q308.1 109.5 307.5 109.8Q307.0 110.1 306.7 110.7Q306.4 111.3 306.4 112.1L306.4 118.0L304.6 118.0ZM319.9 118.2Q318.5 118.2 317.4 117.5Q316.2 116.9 315.6 115.7Q315.0 114.5 315.0 113.0Q315.0 111.5 315.6 110.4Q316.3 109.2 317.4 108.5Q318.5 107.8 319.9 107.8Q321.1 107.8 322.1 108.3Q323.1 108.9 323.6 109.8L323.3 110.2L323.3 104.0L325.1 104.0L325.1 118.0L323.4 118.0L323.4 115.9L323.6 116.2Q323.1 117.2 322.1 117.7Q321.1 118.2 319.9 118.2ZM320.0 116.6Q321.0 116.6 321.7 116.1Q322.5 115.6 322.9 114.8Q323.3 114.0 323.3 113.0Q323.3 112.0 322.9 111.2Q322.5 110.4 321.7 109.9Q321.0 109.5 320.0 109.5Q319.1 109.5 318.4 109.9Q317.6 110.4 317.2 111.2Q316.8 112.0 316.8 113.0Q316.8 114.0 317.2 114.8Q317.6 115.6 318.4 116.1Q319.1 116.6 320.0 116.6Z"/><path fill="#A3C4C1"  d="M44.1 144.7Q42.6 144.7 41.5 144.0Q40.3 143.4 39.6 142.2Q38.9 141.0 38.9 139.5Q38.9 138.0 39.6 136.8Q40.3 135.7 41.4 135.0Q42.6 134.3 44.1 134.3Q45.5 134.3 46.7 135.0Q47.8 135.7 48.5 136.8Q49.2 138.0 49.2 139.5Q49.2 141.0 48.5 142.2Q47.8 143.4 46.6 144.1Q45.5 144.7 44.1 144.7ZM44.1 143.1Q45.0 143.1 45.7 142.6Q46.5 142.1 46.9 141.3Q47.4 140.5 47.4 139.5Q47.4 138.5 46.9 137.7Q46.5 136.9 45.7 136.4Q45.0 136.0 44.1 136.0Q43.1 136.0 42.4 136.4Q41.6 136.9 41.2 137.7Q40.7 138.5 40.7 139.5Q40.7 140.5 41.2 141.3Q41.6 142.1 42.4 142.6Q43.1 143.1 44.1 143.1ZM51.4 148.2L51.4 134.5L53.1 134.5L53.1 136.7L52.9 136.3Q53.5 135.4 54.4 134.8Q55.4 134.3 56.6 134.3Q58.0 134.3 59.1 135.0Q60.3 135.7 60.9 136.9Q61.6 138.0 61.6 139.5Q61.6 141.0 60.9 142.2Q60.3 143.4 59.1 144.0Q58.0 144.7 56.6 144.7Q55.4 144.7 54.4 144.2Q53.4 143.7 52.9 142.7L53.2 142.4L53.2 148.2L51.4 148.2ZM56.5 143.1Q57.4 143.1 58.1 142.6Q58.9 142.1 59.3 141.3Q59.7 140.5 59.7 139.5Q59.7 138.5 59.3 137.7Q58.9 136.9 58.1 136.4Q57.4 136.0 56.5 136.0Q55.5 136.0 54.8 136.4Q54.0 136.9 53.6 137.7Q53.2 138.5 53.2 139.5Q53.2 140.5 53.6 141.3Q54.0 142.1 54.8 142.6Q55.5 143.1 56.5 143.1ZM63.8 148.2L63.8 134.5L65.5 134.5L65.5 136.7L65.3 136.3Q65.8 135.4 66.8 134.8Q67.7 134.3 69.0 134.3Q70.4 134.3 71.5 135.0Q72.6 135.7 73.3 136.9Q73.9 138.0 73.9 139.5Q73.9 141.0 73.3 142.2Q72.6 143.4 71.5 144.0Q70.4 144.7 69.0 144.7Q67.8 144.7 66.8 144.2Q65.8 143.7 65.3 142.7L65.5 142.4L65.5 148.2L63.8 148.2ZM68.8 143.1Q69.8 143.1 70.5 142.6Q71.3 142.1 71.7 141.3Q72.1 140.5 72.1 139.5Q72.1 138.5 71.7 137.7Q71.3 136.9 70.5 136.4Q69.8 136.0 68.8 136.0Q67.9 136.0 67.2 136.4Q66.4 136.9 66.0 137.7Q65.5 138.5 65.5 139.5Q65.5 140.5 66.0 141.3Q66.4 142.1 67.2 142.6Q67.9 143.1 68.8 143.1ZM80.9 144.7Q79.5 144.7 78.3 144.0Q77.1 143.4 76.5 142.2Q75.8 141.0 75.8 139.5Q75.8 138.0 76.4 136.8Q77.1 135.7 78.3 135.0Q79.5 134.3 80.9 134.3Q82.4 134.3 83.5 135.0Q84.7 135.7 85.4 136.8Q86.0 138.0 86.0 139.5Q86.0 141.0 85.3 142.2Q84.6 143.4 83.5 144.1Q82.3 144.7 80.9 144.7ZM80.9 143.1Q81.8 143.1 82.6 142.6Q83.3 142.1 83.8 141.3Q84.2 140.5 84.2 139.5Q84.2 138.5 83.8 137.7Q83.3 136.9 82.6 136.4Q81.8 136.0 80.9 136.0Q80.0 136.0 79.2 136.4Q78.5 136.9 78.0 137.7Q77.6 138.5 77.6 139.5Q77.6 140.5 78.0 141.3Q78.5 142.1 79.2 142.6Q80.0 143.1 80.9 143.1ZM88.3 144.5L88.3 134.5L90.0 134.5L90.0 136.4L89.8 136.1Q90.1 135.2 90.8 134.8Q91.6 134.4 92.6 134.4L93.2 134.4L93.2 136.1L92.4 136.1Q91.3 136.1 90.7 136.7Q90.0 137.4 90.0 138.6L90.0 144.5L88.3 144.5ZM98.9 144.6Q97.4 144.6 96.7 143.8Q95.9 143.0 95.9 141.4L95.9 136.2L94.1 136.2L94.1 134.5L94.4 134.5Q95.1 134.5 95.5 134.1Q95.9 133.7 95.9 133.1L95.9 132.2L97.6 132.2L97.6 134.5L99.8 134.5L99.8 136.2L97.6 136.2L97.6 141.4Q97.6 141.9 97.8 142.3Q97.9 142.6 98.3 142.8Q98.6 143.0 99.2 143.0Q99.4 143.0 99.6 143.0Q99.8 143.0 99.9 143.0L99.9 144.5Q99.7 144.6 99.4 144.6Q99.1 144.6 98.9 144.6ZM105.7 144.7Q104.6 144.7 103.8 144.2Q102.9 143.7 102.4 142.8Q102.0 141.9 102.0 140.8L102.0 134.5L103.7 134.5L103.7 140.6Q103.7 141.3 104.0 141.9Q104.3 142.4 104.8 142.7Q105.4 143.1 106.1 143.1Q106.8 143.1 107.3 142.7Q107.9 142.4 108.2 141.8Q108.5 141.2 108.5 140.4L108.5 134.5L110.2 134.5L110.2 144.5L108.6 144.5L108.6 142.6L108.8 142.7Q108.5 143.7 107.6 144.2Q106.8 144.7 105.7 144.7ZM112.9 144.5L112.9 134.5L114.6 134.5L114.6 136.5L114.3 136.3Q114.7 135.4 115.5 134.8Q116.3 134.3 117.4 134.3Q118.5 134.3 119.4 134.8Q120.2 135.3 120.7 136.1Q121.2 137.0 121.2 138.0L121.2 144.5L119.4 144.5L119.4 138.6Q119.4 137.8 119.1 137.2Q118.8 136.6 118.3 136.3Q117.8 136.0 117.1 136.0Q116.3 136.0 115.8 136.3Q115.2 136.6 114.9 137.2Q114.6 137.8 114.6 138.6L114.6 144.5L112.9 144.5ZM123.6 144.5L123.6 134.5L125.4 134.5L125.4 144.5L123.6 144.5ZM123.6 132.9L123.6 130.7L125.4 130.7L125.4 132.9L123.6 132.9ZM132.1 144.6Q130.6 144.6 129.8 143.8Q129.0 143.0 129.0 141.4L129.0 136.2L127.2 136.2L127.2 134.5L127.6 134.5Q128.3 134.5 128.6 134.1Q129.0 133.7 129.0 133.1L129.0 132.2L130.8 132.2L130.8 134.5L133.0 134.5L133.0 136.2L130.8 136.2L130.8 141.4Q130.8 141.9 130.9 142.3Q131.1 142.6 131.4 142.8Q131.8 143.0 132.4 143.0Q132.6 143.0 132.8 143.0Q132.9 143.0 133.1 143.0L133.1 144.5Q132.9 144.6 132.6 144.6Q132.3 144.6 132.1 144.6ZM135.3 144.5L135.3 134.5L137.1 134.5L137.1 144.5L135.3 144.5ZM135.3 132.9L135.3 130.7L137.1 130.7L137.1 132.9L135.3 132.9ZM144.3 144.7Q142.9 144.7 141.7 144.0Q140.6 143.4 140.0 142.2Q139.3 141.0 139.3 139.5Q139.3 138.0 140.0 136.8Q140.6 135.7 141.7 135.0Q142.8 134.3 144.2 134.3Q145.3 134.3 146.1 134.7Q147.0 135.1 147.6 135.8Q148.2 136.5 148.5 137.3Q148.8 138.2 148.8 139.1Q148.8 139.3 148.8 139.6Q148.8 139.8 148.8 140.0L140.6 140.0L140.6 138.6L147.8 138.6L146.9 139.2Q147.1 138.2 146.8 137.5Q146.4 136.7 145.7 136.3Q145.0 135.8 144.2 135.8Q143.3 135.8 142.6 136.3Q141.9 136.7 141.5 137.6Q141.1 138.4 141.1 139.5Q141.1 140.6 141.5 141.4Q141.9 142.2 142.7 142.7Q143.4 143.1 144.3 143.1Q145.3 143.1 146.0 142.7Q146.7 142.2 147.1 141.5L148.6 142.2Q148.3 142.9 147.7 143.5Q147.0 144.1 146.2 144.4Q145.3 144.7 144.3 144.7ZM154.7 144.7Q153.2 144.7 152.1 144.0Q150.9 143.2 150.5 142.0L151.9 141.3Q152.3 142.2 153.0 142.7Q153.8 143.2 154.7 143.2Q155.5 143.2 156.0 142.9Q156.5 142.5 156.5 141.8Q156.5 141.4 156.3 141.1Q156.0 140.9 155.7 140.7Q155.3 140.5 155.0 140.5L153.5 140.0Q152.2 139.7 151.6 138.9Q151.0 138.2 151.0 137.3Q151.0 136.4 151.4 135.7Q151.9 135.0 152.6 134.7Q153.4 134.3 154.4 134.3Q155.7 134.3 156.8 135.0Q157.8 135.6 158.3 136.8L156.9 137.5Q156.5 136.7 155.9 136.3Q155.2 135.8 154.4 135.8Q153.6 135.8 153.2 136.2Q152.7 136.6 152.7 137.1Q152.7 137.6 152.9 137.8Q153.2 138.1 153.5 138.2Q153.8 138.4 154.1 138.5L155.7 138.9Q156.9 139.3 157.6 140.0Q158.3 140.8 158.3 141.8Q158.3 142.7 157.8 143.3Q157.4 144.0 156.5 144.4Q155.7 144.7 154.7 144.7ZM167.8 144.6Q166.3 144.6 165.5 143.8Q164.8 143.0 164.8 141.4L164.8 136.2L163.0 136.2L163.0 134.5L163.3 134.5Q164.0 134.5 164.4 134.1Q164.8 133.7 164.8 133.1L164.8 132.2L166.5 132.2L166.5 134.5L168.7 134.5L168.7 136.2L166.5 136.2L166.5 141.4Q166.5 141.9 166.6 142.3Q166.8 142.6 167.2 142.8Q167.5 143.0 168.1 143.0Q168.3 143.0 168.5 143.0Q168.7 143.0 168.8 143.0L168.8 144.5Q168.6 144.6 168.3 144.6Q168.0 144.6 167.8 144.6ZM175.5 144.7Q174.1 144.7 172.9 144.0Q171.8 143.4 171.1 142.2Q170.4 141.0 170.4 139.5Q170.4 138.0 171.1 136.8Q171.7 135.7 172.9 135.0Q174.1 134.3 175.5 134.3Q177.0 134.3 178.1 135.0Q179.3 135.7 180.0 136.8Q180.6 138.0 180.6 139.5Q180.6 141.0 179.9 142.2Q179.3 143.4 178.1 144.1Q176.9 144.7 175.5 144.7ZM175.5 143.1Q176.5 143.1 177.2 142.6Q177.9 142.1 178.4 141.3Q178.8 140.5 178.8 139.5Q178.8 138.5 178.4 137.7Q177.9 136.9 177.2 136.4Q176.5 136.0 175.5 136.0Q174.6 136.0 173.8 136.4Q173.1 136.9 172.6 137.7Q172.2 138.5 172.2 139.5Q172.2 140.5 172.6 141.3Q173.1 142.1 173.8 142.6Q174.6 143.1 175.5 143.1ZM190.8 148.6Q189.8 148.6 188.9 148.2Q188.0 147.9 187.4 147.3Q186.7 146.7 186.4 146.0L188.0 145.2Q188.3 145.9 189.0 146.4Q189.7 146.9 190.8 146.9Q191.7 146.9 192.4 146.6Q193.1 146.3 193.5 145.6Q193.9 145.0 193.9 144.1L193.9 141.8L194.2 142.2Q193.7 143.2 192.7 143.7Q191.7 144.3 190.6 144.3Q189.2 144.3 188.1 143.6Q186.9 142.9 186.3 141.8Q185.7 140.7 185.7 139.3Q185.7 137.9 186.3 136.8Q186.9 135.6 188.0 135.0Q189.1 134.3 190.5 134.3Q191.7 134.3 192.7 134.8Q193.6 135.4 194.2 136.3L193.9 136.8L193.9 134.5L195.6 134.5L195.6 144.1Q195.6 145.4 195.0 146.4Q194.4 147.4 193.3 148.0Q192.2 148.6 190.8 148.6ZM190.7 142.6Q191.6 142.6 192.3 142.2Q193.0 141.7 193.5 141.0Q193.9 140.2 193.9 139.3Q193.9 138.4 193.5 137.6Q193.0 136.9 192.3 136.4Q191.6 136.0 190.7 136.0Q189.8 136.0 189.1 136.4Q188.3 136.9 187.9 137.6Q187.5 138.4 187.5 139.3Q187.5 140.2 187.9 141.0Q188.3 141.7 189.1 142.2Q189.8 142.6 190.7 142.6ZM198.3 144.5L198.3 134.5L200.0 134.5L200.0 136.4L199.8 136.1Q200.1 135.2 200.9 134.8Q201.6 134.4 202.6 134.4L203.2 134.4L203.2 136.1L202.4 136.1Q201.3 136.1 200.7 136.7Q200.0 137.4 200.0 138.6L200.0 144.5L198.3 144.5ZM209.5 144.7Q208.1 144.7 206.9 144.0Q205.7 143.4 205.0 142.2Q204.3 141.0 204.3 139.5Q204.3 138.0 205.0 136.8Q205.7 135.7 206.9 135.0Q208.0 134.3 209.5 134.3Q210.9 134.3 212.1 135.0Q213.3 135.7 213.9 136.8Q214.6 138.0 214.6 139.5Q214.6 141.0 213.9 142.2Q213.2 143.4 212.1 144.1Q210.9 144.7 209.5 144.7ZM209.5 143.1Q210.4 143.1 211.2 142.6Q211.9 142.1 212.3 141.3Q212.8 140.5 212.8 139.5Q212.8 138.5 212.3 137.7Q211.9 136.9 211.2 136.4Q210.4 136.0 209.5 136.0Q208.5 136.0 207.8 136.4Q207.1 136.9 206.6 137.7Q206.2 138.5 206.2 139.5Q206.2 140.5 206.6 141.3Q207.1 142.1 207.8 142.6Q208.5 143.1 209.5 143.1ZM219.0 144.5L215.5 134.5L217.4 134.5L220.2 142.9L219.5 142.9L222.2 134.5L223.8 134.5L226.5 142.9L225.8 142.9L228.5 134.5L230.4 134.5L227.0 144.5L225.3 144.5L222.7 136.2L223.2 136.2L220.6 144.5L219.0 144.5ZM239.2 144.6Q237.7 144.6 237.0 143.8Q236.2 143.0 236.2 141.4L236.2 136.2L234.4 136.2L234.4 134.5L234.7 134.5Q235.4 134.5 235.8 134.1Q236.2 133.7 236.2 133.1L236.2 132.2L237.9 132.2L237.9 134.5L240.1 134.5L240.1 136.2L237.9 136.2L237.9 141.4Q237.9 141.9 238.1 142.3Q238.2 142.6 238.6 142.8Q238.9 143.0 239.5 143.0Q239.7 143.0 239.9 143.0Q240.1 143.0 240.2 143.0L240.2 144.5Q240.0 144.6 239.7 144.6Q239.4 144.6 239.2 144.6ZM242.5 144.5L242.5 130.5L244.2 130.5L244.2 136.5L243.9 136.3Q244.3 135.4 245.1 134.8Q245.9 134.3 247.0 134.3Q248.1 134.3 248.9 134.8Q249.8 135.3 250.3 136.1Q250.7 137.0 250.7 138.0L250.7 144.5L249.0 144.5L249.0 138.6Q249.0 137.8 248.7 137.2Q248.4 136.6 247.9 136.3Q247.3 136.0 246.6 136.0Q245.9 136.0 245.4 136.3Q244.8 136.6 244.5 137.2Q244.2 137.8 244.2 138.6L244.2 144.5L242.5 144.5ZM257.8 144.7Q256.4 144.7 255.2 144.0Q254.1 143.4 253.4 142.2Q252.8 141.0 252.8 139.5Q252.8 138.0 253.4 136.8Q254.1 135.7 255.2 135.0Q256.3 134.3 257.6 134.3Q258.8 134.3 259.6 134.7Q260.5 135.1 261.1 135.8Q261.7 136.5 262.0 137.3Q262.3 138.2 262.3 139.1Q262.3 139.3 262.3 139.6Q262.3 139.8 262.2 140.0L254.1 140.0L254.1 138.6L261.2 138.6L260.4 139.2Q260.6 138.2 260.2 137.5Q259.9 136.7 259.2 136.3Q258.5 135.8 257.6 135.8Q256.8 135.8 256.1 136.3Q255.3 136.7 254.9 137.6Q254.5 138.4 254.6 139.5Q254.5 140.6 255.0 141.4Q255.4 142.2 256.1 142.7Q256.9 143.1 257.8 143.1Q258.8 143.1 259.5 142.7Q260.2 142.2 260.6 141.5L262.1 142.2Q261.8 142.9 261.1 143.5Q260.5 144.1 259.7 144.4Q258.8 144.7 257.8 144.7ZM271.3 144.7Q269.8 144.7 268.7 144.0Q267.6 143.2 267.2 142.0L268.5 141.3Q268.9 142.2 269.7 142.7Q270.4 143.2 271.3 143.2Q272.1 143.2 272.7 142.9Q273.2 142.5 273.2 141.8Q273.2 141.4 273.0 141.1Q272.7 140.9 272.4 140.7Q272.0 140.5 271.7 140.5L270.2 140.0Q268.9 139.7 268.3 138.9Q267.6 138.2 267.6 137.3Q267.6 136.4 268.1 135.7Q268.5 135.0 269.3 134.7Q270.1 134.3 271.1 134.3Q272.4 134.3 273.5 135.0Q274.5 135.6 274.9 136.8L273.5 137.5Q273.2 136.7 272.5 136.3Q271.9 135.8 271.0 135.8Q270.3 135.8 269.8 136.2Q269.4 136.6 269.4 137.1Q269.4 137.6 269.6 137.8Q269.8 138.1 270.2 138.2Q270.5 138.4 270.8 138.5L272.4 138.9Q273.6 139.3 274.3 140.0Q275.0 140.8 275.0 141.8Q275.0 142.7 274.5 143.3Q274.0 144.0 273.2 144.4Q272.4 144.7 271.3 144.7ZM281.3 144.6Q279.8 144.6 279.0 143.8Q278.2 143.0 278.2 141.4L278.2 136.2L276.4 136.2L276.4 134.5L276.8 134.5Q277.5 134.5 277.9 134.1Q278.2 133.7 278.2 133.1L278.2 132.2L280.0 132.2L280.0 134.5L282.2 134.5L282.2 136.2L280.0 136.2L280.0 141.4Q280.0 141.9 280.1 142.3Q280.3 142.6 280.6 142.8Q281.0 143.0 281.6 143.0Q281.8 143.0 282.0 143.0Q282.1 143.0 282.3 143.0L282.3 144.5Q282.1 144.6 281.8 144.6Q281.5 144.6 281.3 144.6ZM287.3 144.7Q286.4 144.7 285.6 144.4Q284.9 144.0 284.4 143.4Q284.0 142.7 284.0 141.9Q284.0 141.1 284.4 140.5Q284.7 139.8 285.4 139.4Q286.2 138.9 287.3 138.7L291.0 138.1L291.0 139.6L287.6 140.1Q286.7 140.3 286.3 140.8Q285.8 141.2 285.8 141.8Q285.8 142.4 286.3 142.9Q286.8 143.3 287.6 143.3Q288.5 143.3 289.2 142.9Q289.9 142.5 290.3 141.8Q290.7 141.1 290.7 140.3L290.7 137.7Q290.7 136.9 290.1 136.4Q289.5 135.9 288.5 135.9Q287.6 135.9 287.0 136.3Q286.3 136.8 286.0 137.5L284.5 136.7Q284.8 136.0 285.4 135.5Q286.0 134.9 286.8 134.6Q287.6 134.3 288.5 134.3Q289.7 134.3 290.5 134.8Q291.4 135.2 291.9 136.0Q292.4 136.7 292.4 137.7L292.4 144.5L290.7 144.5L290.7 142.6L291.0 142.7Q290.7 143.3 290.2 143.8Q289.6 144.2 288.9 144.5Q288.2 144.7 287.3 144.7ZM295.0 144.5L295.0 134.5L296.7 134.5L296.7 136.4L296.6 136.1Q296.9 135.2 297.6 134.8Q298.4 134.4 299.4 134.4L300.0 134.4L300.0 136.1L299.1 136.1Q298.1 136.1 297.4 136.7Q296.8 137.4 296.8 138.6L296.8 144.5L295.0 144.5ZM305.7 144.6Q304.2 144.6 303.4 143.8Q302.6 143.0 302.6 141.4L302.6 136.2L300.8 136.2L300.8 134.5L301.2 134.5Q301.9 134.5 302.3 134.1Q302.6 133.7 302.6 133.1L302.6 132.2L304.4 132.2L304.4 134.5L306.6 134.5L306.6 136.2L304.4 136.2L304.4 141.4Q304.4 141.9 304.5 142.3Q304.7 142.6 305.0 142.8Q305.4 143.0 306.0 143.0Q306.2 143.0 306.4 143.0Q306.6 143.0 306.7 143.0L306.7 144.5Q306.5 144.6 306.2 144.6Q305.9 144.6 305.7 144.6ZM312.5 144.7Q311.4 144.7 310.5 144.2Q309.7 143.7 309.2 142.8Q308.7 141.9 308.7 140.8L308.7 134.5L310.5 134.5L310.5 140.6Q310.5 141.3 310.8 141.9Q311.1 142.4 311.6 142.7Q312.2 143.1 312.9 143.1Q313.6 143.1 314.1 142.7Q314.7 142.4 315.0 141.8Q315.3 141.2 315.3 140.4L315.3 134.5L317.0 134.5L317.0 144.5L315.3 144.5L315.3 142.6L315.6 142.7Q315.3 143.7 314.4 144.2Q313.6 144.7 312.5 144.7ZM319.7 148.2L319.7 134.5L321.4 134.5L321.4 136.7L321.1 136.3Q321.7 135.4 322.7 134.8Q323.6 134.3 324.9 134.3Q326.3 134.3 327.4 135.0Q328.5 135.7 329.2 136.9Q329.8 138.0 329.8 139.5Q329.8 141.0 329.2 142.2Q328.5 143.4 327.4 144.0Q326.3 144.7 324.8 144.7Q323.6 144.7 322.6 144.2Q321.7 143.7 321.1 142.7L321.4 142.4L321.4 148.2L319.7 148.2ZM324.7 143.1Q325.7 143.1 326.4 142.6Q327.1 142.1 327.6 141.3Q328.0 140.5 328.0 139.5Q328.0 138.5 327.6 137.7Q327.1 136.9 326.4 136.4Q325.7 136.0 324.7 136.0Q323.8 136.0 323.0 136.4Q322.3 136.9 321.8 137.7Q321.4 138.5 321.4 139.5Q321.4 140.5 321.8 141.3Q322.3 142.1 323.0 142.6Q323.8 143.1 324.7 143.1Z"/><path fill="#A3C4C1"  d="M43.9 171.2Q42.5 171.2 41.3 170.5Q40.2 169.9 39.6 168.7Q38.9 167.5 38.9 166.0Q38.9 164.5 39.6 163.3Q40.2 162.2 41.3 161.5Q42.4 160.8 43.8 160.8Q44.9 160.8 45.7 161.2Q46.6 161.6 47.2 162.3Q47.8 163.0 48.1 163.8Q48.4 164.7 48.4 165.6Q48.4 165.8 48.4 166.1Q48.4 166.3 48.4 166.5L40.2 166.5L40.2 165.1L47.4 165.1L46.5 165.7Q46.7 164.7 46.4 164.0Q46.0 163.2 45.3 162.8Q44.6 162.3 43.8 162.3Q42.9 162.3 42.2 162.8Q41.5 163.2 41.1 164.1Q40.7 164.9 40.7 166.0Q40.7 167.1 41.1 167.9Q41.5 168.7 42.3 169.2Q43.0 169.6 43.9 169.6Q44.9 169.6 45.6 169.2Q46.3 168.7 46.7 168.0L48.2 168.7Q47.9 169.4 47.3 170.0Q46.6 170.6 45.8 170.9Q44.9 171.2 43.9 171.2ZM55.3 171.2Q53.8 171.2 52.7 170.5Q51.6 169.8 50.9 168.7Q50.3 167.5 50.3 166.0Q50.3 164.5 50.9 163.3Q51.6 162.2 52.7 161.5Q53.8 160.8 55.3 160.8Q56.3 160.8 57.1 161.2Q58.0 161.5 58.6 162.1Q59.3 162.7 59.6 163.5L58.0 164.2Q57.7 163.5 57.0 163.0Q56.3 162.5 55.3 162.5Q54.4 162.5 53.7 162.9Q52.9 163.4 52.5 164.2Q52.1 165.0 52.1 166.0Q52.1 167.0 52.5 167.8Q52.9 168.6 53.7 169.1Q54.4 169.6 55.3 169.6Q56.3 169.6 57.0 169.1Q57.7 168.6 58.0 167.8L59.6 168.5Q59.3 169.3 58.6 169.9Q58.0 170.5 57.2 170.9Q56.3 171.2 55.3 171.2ZM66.6 171.2Q65.1 171.2 64.0 170.5Q62.8 169.9 62.1 168.7Q61.4 167.5 61.4 166.0Q61.4 164.5 62.1 163.3Q62.8 162.2 64.0 161.5Q65.1 160.8 66.6 160.8Q68.0 160.8 69.2 161.5Q70.3 162.2 71.0 163.3Q71.7 164.5 71.7 166.0Q71.7 167.5 71.0 168.7Q70.3 169.9 69.1 170.6Q68.0 171.2 66.6 171.2ZM66.6 169.6Q67.5 169.6 68.3 169.1Q69.0 168.6 69.4 167.8Q69.9 167.0 69.9 166.0Q69.9 165.0 69.4 164.2Q69.0 163.4 68.3 162.9Q67.5 162.5 66.6 162.5Q65.6 162.5 64.9 162.9Q64.1 163.4 63.7 164.2Q63.3 165.0 63.3 166.0Q63.3 167.0 63.7 167.8Q64.1 168.6 64.9 169.1Q65.6 169.6 66.6 169.6ZM77.5 171.2Q76.0 171.2 74.9 170.5Q73.8 169.7 73.3 168.5L74.7 167.8Q75.1 168.7 75.9 169.2Q76.6 169.7 77.5 169.7Q78.3 169.7 78.9 169.4Q79.4 169.0 79.4 168.3Q79.4 167.9 79.1 167.6Q78.9 167.4 78.5 167.2Q78.2 167.0 77.9 167.0L76.4 166.5Q75.1 166.2 74.4 165.4Q73.8 164.7 73.8 163.8Q73.8 162.9 74.3 162.2Q74.7 161.5 75.5 161.2Q76.3 160.8 77.3 160.8Q78.6 160.8 79.6 161.5Q80.7 162.1 81.1 163.3L79.7 164.0Q79.4 163.2 78.7 162.8Q78.0 162.3 77.2 162.3Q76.5 162.3 76.0 162.7Q75.6 163.1 75.6 163.6Q75.6 164.1 75.8 164.3Q76.0 164.6 76.3 164.7Q76.6 164.9 76.9 165.0L78.6 165.4Q79.8 165.8 80.5 166.5Q81.1 167.3 81.1 168.3Q81.1 169.2 80.7 169.8Q80.2 170.5 79.4 170.9Q78.6 171.2 77.5 171.2ZM83.8 175.1Q83.4 175.1 83.1 175.0Q82.8 175.0 82.5 174.8L82.5 173.3Q82.7 173.3 83.0 173.4Q83.3 173.4 83.6 173.4Q84.4 173.4 84.9 173.0Q85.3 172.7 85.7 171.7L86.4 170.2L86.3 171.7L82.1 161.0L84.0 161.0L87.3 169.5L86.7 169.5L90.0 161.0L91.9 161.0L87.4 172.2Q87.1 173.0 86.6 173.6Q86.1 174.3 85.4 174.7Q84.7 175.1 83.8 175.1ZM97.0 171.2Q95.5 171.2 94.4 170.5Q93.3 169.7 92.8 168.5L94.2 167.8Q94.6 168.7 95.4 169.2Q96.1 169.7 97.0 169.7Q97.8 169.7 98.4 169.4Q98.9 169.0 98.9 168.3Q98.9 167.9 98.6 167.6Q98.4 167.4 98.0 167.2Q97.7 167.0 97.4 167.0L95.9 166.5Q94.6 166.2 93.9 165.4Q93.3 164.7 93.3 163.8Q93.3 162.9 93.8 162.2Q94.2 161.5 95.0 161.2Q95.8 160.8 96.8 160.8Q98.1 160.8 99.1 161.5Q100.2 162.1 100.6 163.3L99.2 164.0Q98.9 163.2 98.2 162.8Q97.5 162.3 96.7 162.3Q96.0 162.3 95.5 162.7Q95.1 163.1 95.1 163.6Q95.1 164.1 95.3 164.3Q95.5 164.6 95.8 164.7Q96.1 164.9 96.4 165.0L98.1 165.4Q99.3 165.8 100.0 166.5Q100.6 167.3 100.6 168.3Q100.6 169.2 100.2 169.8Q99.7 170.5 98.9 170.9Q98.1 171.2 97.0 171.2ZM106.9 171.1Q105.5 171.1 104.7 170.3Q103.9 169.5 103.9 167.9L103.9 162.7L102.1 162.7L102.1 161.0L102.5 161.0Q103.1 161.0 103.5 160.6Q103.9 160.2 103.9 159.6L103.9 158.7L105.6 158.7L105.6 161.0L107.9 161.0L107.9 162.7L105.6 162.7L105.6 167.9Q105.6 168.4 105.8 168.8Q106.0 169.1 106.3 169.3Q106.7 169.5 107.3 169.5Q107.4 169.5 107.6 169.5Q107.8 169.5 108.0 169.5L108.0 171.0Q107.7 171.1 107.4 171.1Q107.2 171.1 106.9 171.1ZM114.5 171.2Q113.1 171.2 112.0 170.5Q110.8 169.9 110.2 168.7Q109.5 167.5 109.5 166.0Q109.5 164.5 110.2 163.3Q110.8 162.2 111.9 161.5Q113.0 160.8 114.4 160.8Q115.5 160.8 116.3 161.2Q117.2 161.6 117.8 162.3Q118.4 163.0 118.7 163.8Q119.1 164.7 119.1 165.6Q119.1 165.8 119.0 166.1Q119.0 166.3 119.0 166.5L110.8 166.5L110.8 165.1L118.0 165.1L117.2 165.7Q117.3 164.7 117.0 164.0Q116.6 163.2 115.9 162.8Q115.3 162.3 114.4 162.3Q113.5 162.3 112.8 162.8Q112.1 163.2 111.7 164.1Q111.3 164.9 111.4 166.0Q111.3 167.1 111.7 167.9Q112.1 168.7 112.9 169.2Q113.6 169.6 114.5 169.6Q115.6 169.6 116.2 169.2Q116.9 168.7 117.3 168.0L118.8 168.7Q118.5 169.4 117.9 170.0Q117.3 170.6 116.4 170.9Q115.6 171.2 114.5 171.2ZM121.3 171.0L121.3 161.0L123.0 161.0L123.0 163.1L122.7 162.8Q123.1 161.8 123.9 161.3Q124.7 160.8 125.8 160.8Q126.9 160.8 127.9 161.5Q128.8 162.1 129.1 163.2L128.7 163.2Q129.1 162.0 130.0 161.4Q130.9 160.8 132.0 160.8Q133.1 160.8 133.9 161.3Q134.7 161.8 135.2 162.6Q135.7 163.5 135.7 164.5L135.7 171.0L134.0 171.0L134.0 165.1Q134.0 164.3 133.7 163.7Q133.4 163.1 132.9 162.8Q132.4 162.5 131.7 162.5Q131.1 162.5 130.5 162.8Q130.0 163.1 129.7 163.7Q129.4 164.3 129.4 165.1L129.4 171.0L127.7 171.0L127.7 165.1Q127.7 164.3 127.4 163.7Q127.1 163.1 126.6 162.8Q126.0 162.5 125.4 162.5Q124.7 162.5 124.2 162.8Q123.6 163.1 123.3 163.7Q123.0 164.3 123.0 165.1L123.0 171.0L121.3 171.0ZM145.4 171.1Q144.0 171.1 143.2 170.3Q142.4 169.5 142.4 167.9L142.4 162.7L140.6 162.7L140.6 161.0L141.0 161.0Q141.6 161.0 142.0 160.6Q142.4 160.2 142.4 159.6L142.4 158.7L144.1 158.7L144.1 161.0L146.4 161.0L146.4 162.7L144.1 162.7L144.1 167.9Q144.1 168.4 144.3 168.8Q144.5 169.1 144.8 169.3Q145.2 169.5 145.8 169.5Q145.9 169.5 146.1 169.5Q146.3 169.5 146.5 169.5L146.5 171.0Q146.2 171.1 145.9 171.1Q145.7 171.1 145.4 171.1ZM153.2 171.2Q151.7 171.2 150.6 170.5Q149.4 169.9 148.7 168.7Q148.0 167.5 148.0 166.0Q148.0 164.5 148.7 163.3Q149.4 162.2 150.6 161.5Q151.7 160.8 153.2 160.8Q154.6 160.8 155.8 161.5Q156.9 162.2 157.6 163.3Q158.3 164.5 158.3 166.0Q158.3 167.5 157.6 168.7Q156.9 169.9 155.7 170.6Q154.6 171.2 153.2 171.2ZM153.2 169.6Q154.1 169.6 154.9 169.1Q155.6 168.6 156.0 167.8Q156.5 167.0 156.5 166.0Q156.5 165.0 156.0 164.2Q155.6 163.4 154.9 162.9Q154.1 162.5 153.2 162.5Q152.2 162.5 151.5 162.9Q150.7 163.4 150.3 164.2Q149.9 165.0 149.9 166.0Q149.9 167.0 150.3 167.8Q150.7 168.6 151.5 169.1Q152.2 169.6 153.2 169.6ZM165.3 175.1Q164.2 175.1 163.3 174.7Q162.5 174.4 161.8 173.8Q161.2 173.2 160.8 172.5L162.4 171.7Q162.7 172.4 163.4 172.9Q164.2 173.4 165.3 173.4Q166.1 173.4 166.8 173.1Q167.5 172.8 167.9 172.1Q168.3 171.5 168.3 170.6L168.3 168.3L168.6 168.7Q168.1 169.7 167.2 170.2Q166.2 170.8 165.0 170.8Q163.6 170.8 162.5 170.1Q161.4 169.4 160.8 168.3Q160.1 167.2 160.1 165.8Q160.1 164.4 160.8 163.3Q161.4 162.1 162.5 161.5Q163.6 160.8 165.0 160.8Q166.2 160.8 167.1 161.3Q168.1 161.9 168.6 162.8L168.4 163.3L168.4 161.0L170.1 161.0L170.1 170.6Q170.1 171.9 169.5 172.9Q168.8 173.9 167.8 174.5Q166.7 175.1 165.3 175.1ZM165.2 169.1Q166.1 169.1 166.8 168.7Q167.5 168.2 167.9 167.5Q168.3 166.7 168.3 165.8Q168.3 164.9 167.9 164.1Q167.5 163.4 166.8 162.9Q166.1 162.5 165.2 162.5Q164.3 162.5 163.5 162.9Q162.8 163.4 162.4 164.1Q162.0 164.9 162.0 165.8Q162.0 166.7 162.4 167.5Q162.8 168.2 163.5 168.7Q164.2 169.1 165.2 169.1ZM177.3 171.2Q175.9 171.2 174.7 170.5Q173.6 169.9 173.0 168.7Q172.3 167.5 172.3 166.0Q172.3 164.5 173.0 163.3Q173.6 162.2 174.7 161.5Q175.8 160.8 177.2 160.8Q178.3 160.8 179.1 161.2Q180.0 161.6 180.6 162.3Q181.2 163.0 181.5 163.8Q181.8 164.7 181.8 165.6Q181.8 165.8 181.8 166.1Q181.8 166.3 181.8 166.5L173.6 166.5L173.6 165.1L180.8 165.1L179.9 165.7Q180.1 164.7 179.8 164.0Q179.4 163.2 178.7 162.8Q178.0 162.3 177.2 162.3Q176.3 162.3 175.6 162.8Q174.9 163.2 174.5 164.1Q174.1 164.9 174.1 166.0Q174.1 167.1 174.5 167.9Q174.9 168.7 175.7 169.2Q176.4 169.6 177.3 169.6Q178.3 169.6 179.0 169.2Q179.7 168.7 180.1 168.0L181.6 168.7Q181.3 169.4 180.7 170.0Q180.0 170.6 179.2 170.9Q178.4 171.2 177.3 171.2ZM188.1 171.1Q186.7 171.1 185.9 170.3Q185.1 169.5 185.1 167.9L185.1 162.7L183.3 162.7L183.3 161.0L183.7 161.0Q184.3 161.0 184.7 160.6Q185.1 160.2 185.1 159.6L185.1 158.7L186.8 158.7L186.8 161.0L189.1 161.0L189.1 162.7L186.8 162.7L186.8 167.9Q186.8 168.4 187.0 168.8Q187.2 169.1 187.5 169.3Q187.9 169.5 188.5 169.5Q188.6 169.5 188.8 169.5Q189.0 169.5 189.2 169.5L189.2 171.0Q188.9 171.1 188.6 171.1Q188.3 171.1 188.1 171.1ZM191.4 171.0L191.4 157.0L193.1 157.0L193.1 163.0L192.8 162.8Q193.2 161.9 194.0 161.3Q194.8 160.8 195.9 160.8Q197.0 160.8 197.9 161.3Q198.7 161.8 199.2 162.6Q199.7 163.5 199.7 164.5L199.7 171.0L198.0 171.0L198.0 165.1Q198.0 164.3 197.6 163.7Q197.3 163.1 196.8 162.8Q196.3 162.5 195.6 162.5Q194.9 162.5 194.3 162.8Q193.8 163.1 193.5 163.7Q193.1 164.3 193.1 165.1L193.1 171.0L191.4 171.0ZM206.7 171.2Q205.3 171.2 204.2 170.5Q203.0 169.9 202.4 168.7Q201.7 167.5 201.7 166.0Q201.7 164.5 202.4 163.3Q203.0 162.2 204.1 161.5Q205.2 160.8 206.6 160.8Q207.7 160.8 208.6 161.2Q209.4 161.6 210.0 162.3Q210.6 163.0 210.9 163.8Q211.3 164.7 211.3 165.6Q211.3 165.8 211.2 166.1Q211.2 166.3 211.2 166.5L203.0 166.5L203.0 165.1L210.2 165.1L209.4 165.7Q209.5 164.7 209.2 164.0Q208.8 163.2 208.1 162.8Q207.5 162.3 206.6 162.3Q205.7 162.3 205.0 162.8Q204.3 163.2 203.9 164.1Q203.5 164.9 203.6 166.0Q203.5 167.1 203.9 167.9Q204.3 168.7 205.1 169.2Q205.8 169.6 206.8 169.6Q207.8 169.6 208.4 169.2Q209.1 168.7 209.6 168.0L211.0 168.7Q210.7 169.4 210.1 170.0Q209.5 170.6 208.6 170.9Q207.8 171.2 206.7 171.2ZM213.5 171.0L213.5 161.0L215.2 161.0L215.2 162.9L215.0 162.6Q215.4 161.8 216.1 161.3Q216.8 160.9 217.8 160.9L218.4 160.9L218.4 162.6L217.6 162.6Q216.5 162.6 215.9 163.2Q215.2 163.9 215.2 165.1L215.2 171.0L213.5 171.0ZM219.9 171.0L219.9 168.8L221.7 168.8L221.7 171.0L219.9 171.0Z"/><path fill="#8BC53F"  d="M42.9 216.0L38.2 202.6L40.9 202.6L44.5 213.7L44.0 213.7L47.7 202.6L50.3 202.6L45.7 216.0L42.9 216.0ZM51.6 216.0L51.6 206.2L54.0 206.2L54.0 216.0L51.6 216.0ZM51.6 205.1L51.6 202.6L54.0 202.6L54.0 205.1L51.6 205.1ZM60.8 216.2Q59.3 216.2 58.2 215.5Q57.0 214.8 56.4 213.7Q55.8 212.5 55.8 211.1Q55.8 209.6 56.4 208.5Q57.1 207.3 58.2 206.7Q59.3 206.0 60.6 206.0Q61.8 206.0 62.7 206.4Q63.5 206.7 64.2 207.4Q64.8 208.1 65.1 208.9Q65.4 209.8 65.4 210.8Q65.4 211.0 65.4 211.3Q65.4 211.6 65.3 211.8L57.7 211.8L57.7 210.0L64.0 210.0L62.8 210.8Q63.0 210.0 62.8 209.3Q62.5 208.7 62.0 208.3Q61.4 207.9 60.6 207.9Q59.9 207.9 59.3 208.3Q58.8 208.7 58.5 209.4Q58.2 210.1 58.2 211.1Q58.2 212.0 58.5 212.7Q58.8 213.4 59.4 213.8Q60.0 214.1 60.8 214.1Q61.7 214.1 62.2 213.8Q62.8 213.5 63.1 212.9L65.0 213.8Q64.7 214.5 64.1 215.1Q63.5 215.6 62.7 215.9Q61.8 216.2 60.8 216.2ZM69.7 216.0L66.3 206.2L68.8 206.2L71.2 213.6L70.4 213.6L73.0 206.2L75.1 206.2L77.7 213.6L76.8 213.6L79.3 206.2L81.8 206.2L78.4 216.0L76.3 216.0L73.6 208.2L74.4 208.2L71.8 216.0L69.7 216.0ZM86.3 219.6L86.3 206.2L88.5 206.2L88.5 208.2L88.3 207.7Q88.8 206.9 89.7 206.4Q90.5 206.0 91.6 206.0Q93.0 206.0 94.2 206.7Q95.3 207.4 95.9 208.5Q96.6 209.7 96.6 211.1Q96.6 212.5 95.9 213.7Q95.3 214.9 94.2 215.5Q93.1 216.2 91.6 216.2Q90.6 216.2 89.7 215.8Q88.8 215.4 88.3 214.6L88.6 214.1L88.6 219.6L86.3 219.6ZM91.4 214.1Q92.2 214.1 92.8 213.7Q93.4 213.3 93.8 212.6Q94.1 212.0 94.1 211.1Q94.1 210.2 93.8 209.6Q93.4 208.9 92.8 208.5Q92.2 208.2 91.4 208.2Q90.6 208.2 90.0 208.5Q89.3 208.9 89.0 209.6Q88.6 210.3 88.6 211.1Q88.6 212.0 89.0 212.6Q89.3 213.3 90.0 213.7Q90.6 214.1 91.4 214.1ZM101.4 216.2Q100.3 216.2 99.6 215.9Q98.8 215.5 98.4 214.9Q98.0 214.3 98.0 213.4Q98.0 212.6 98.3 212.0Q98.7 211.3 99.5 210.9Q100.2 210.5 101.4 210.3L104.6 209.8L104.6 211.5L101.8 212.0Q101.1 212.2 100.8 212.5Q100.4 212.8 100.4 213.3Q100.4 213.8 100.8 214.1Q101.2 214.4 101.8 214.4Q102.5 214.4 103.1 214.1Q103.7 213.8 104.0 213.2Q104.3 212.7 104.3 212.0L104.3 209.5Q104.3 208.8 103.8 208.4Q103.3 208.0 102.5 208.0Q101.7 208.0 101.2 208.4Q100.6 208.8 100.3 209.5L98.4 208.6Q98.7 207.8 99.3 207.2Q99.9 206.6 100.7 206.3Q101.6 206.0 102.6 206.0Q103.8 206.0 104.7 206.4Q105.6 206.9 106.1 207.7Q106.6 208.4 106.6 209.5L106.6 216.0L104.4 216.0L104.4 214.3L104.9 214.3Q104.5 214.9 104.0 215.3Q103.5 215.8 102.8 216.0Q102.2 216.2 101.4 216.2ZM108.8 216.0L108.8 206.2L111.0 206.2L111.0 208.4L110.9 208.1Q111.2 207.0 111.9 206.5Q112.7 206.1 113.7 206.1L114.3 206.1L114.3 208.2L113.4 208.2Q112.4 208.2 111.8 208.8Q111.2 209.4 111.2 210.5L111.2 216.0L108.8 216.0ZM120.3 216.1Q118.6 216.1 117.7 215.2Q116.8 214.3 116.8 212.6L116.8 208.3L115.1 208.3L115.1 206.2L115.3 206.2Q116.0 206.2 116.4 205.8Q116.8 205.4 116.8 204.7L116.8 204.0L119.2 204.0L119.2 206.2L121.4 206.2L121.4 208.3L119.2 208.3L119.2 212.5Q119.2 213.0 119.3 213.3Q119.5 213.7 119.9 213.9Q120.3 214.0 120.8 214.0Q121.0 214.0 121.1 214.0Q121.3 214.0 121.5 214.0L121.5 216.0Q121.2 216.0 120.9 216.1Q120.6 216.1 120.3 216.1ZM123.3 216.0L123.3 206.2L125.5 206.2L125.5 208.1L125.3 207.8Q125.6 206.9 126.4 206.5Q127.2 206.0 128.2 206.0Q129.3 206.0 130.2 206.5Q131.0 206.9 131.5 207.8Q131.9 208.6 131.9 209.7L131.9 216.0L129.6 216.0L129.6 210.3Q129.6 209.6 129.3 209.1Q129.1 208.7 128.6 208.4Q128.2 208.2 127.6 208.2Q127.0 208.2 126.6 208.4Q126.1 208.7 125.9 209.1Q125.6 209.6 125.6 210.3L125.6 216.0L123.3 216.0ZM138.6 216.2Q137.1 216.2 135.9 215.5Q134.8 214.8 134.2 213.7Q133.5 212.5 133.5 211.1Q133.5 209.6 134.2 208.5Q134.8 207.3 135.9 206.7Q137.0 206.0 138.4 206.0Q139.5 206.0 140.4 206.4Q141.3 206.7 141.9 207.4Q142.5 208.1 142.8 208.9Q143.2 209.8 143.2 210.8Q143.2 211.0 143.1 211.3Q143.1 211.6 143.1 211.8L135.5 211.8L135.5 210.0L141.7 210.0L140.6 210.8Q140.8 210.0 140.5 209.3Q140.3 208.7 139.7 208.3Q139.2 207.9 138.4 207.9Q137.7 207.9 137.1 208.3Q136.5 208.7 136.2 209.4Q135.9 210.1 136.0 211.1Q135.9 212.0 136.2 212.7Q136.5 213.4 137.2 213.8Q137.8 214.1 138.6 214.1Q139.4 214.1 140.0 213.8Q140.5 213.5 140.9 212.9L142.8 213.8Q142.5 214.5 141.9 215.1Q141.3 215.6 140.4 215.9Q139.6 216.2 138.6 216.2ZM144.9 216.0L144.9 206.2L147.2 206.2L147.2 208.4L147.0 208.1Q147.3 207.0 148.1 206.5Q148.8 206.1 149.8 206.1L150.4 206.1L150.4 208.2L149.5 208.2Q148.5 208.2 147.9 208.8Q147.3 209.4 147.3 210.5L147.3 216.0L144.9 216.0ZM155.4 216.2Q153.8 216.2 152.7 215.5Q151.5 214.7 151.1 213.4L152.9 212.6Q153.2 213.4 153.9 213.9Q154.6 214.4 155.4 214.4Q156.1 214.4 156.4 214.1Q156.8 213.8 156.8 213.3Q156.8 213.0 156.7 212.8Q156.5 212.6 156.2 212.5Q156.0 212.4 155.7 212.3L154.1 211.8Q152.8 211.5 152.2 210.7Q151.6 210.0 151.6 209.0Q151.6 208.1 152.0 207.4Q152.5 206.8 153.3 206.4Q154.1 206.0 155.2 206.0Q156.6 206.0 157.6 206.7Q158.7 207.3 159.1 208.5L157.3 209.4Q157.1 208.7 156.5 208.3Q155.9 207.9 155.2 207.9Q154.6 207.9 154.2 208.2Q153.9 208.5 153.9 208.9Q153.9 209.2 154.0 209.4Q154.2 209.6 154.4 209.7Q154.7 209.8 155.0 209.9L156.6 210.4Q157.8 210.7 158.5 211.5Q159.1 212.2 159.1 213.2Q159.1 214.1 158.6 214.8Q158.2 215.5 157.3 215.8Q156.5 216.2 155.4 216.2Z"/><path d="M169.8 205l6 5.5-6 5.5" fill="none" stroke="#8BC53F" stroke-width="2.4" stroke-linecap="round" stroke-linejoin="round"/></g><rect x=".75" y=".75" width="578.5" height="248.5" rx="21.3" fill="none" stroke="#1D5764" stroke-width="1.5"/></svg>